<svg version="1.1" id="Layer_1" xmlns="http://www.w3.org/2000/svg" xmlns:xlink="http://www.w3.org/1999/xlink" x="0px" y="0px"
	 width="100%" viewBox="0 0 1563 1563" enable-background="new 0 0 1563 1563" xml:space="preserve">
<path fill="#000000" opacity="1.000000" stroke="none" 
	d="
M875.000000,1564.000000 
	C583.333374,1564.000000 292.166779,1564.000000 1.000117,1564.000000 
	C1.000078,1043.000122 1.000078,522.000305 1.000039,1.000327 
	C521.999756,1.000218 1042.999512,1.000218 1563.999512,1.000109 
	C1563.999634,521.999695 1563.999634,1042.999390 1563.999756,1563.999512 
	C1334.500000,1564.000000 1105.000000,1564.000000 875.000000,1564.000000 
M859.112366,1290.856812 
	C859.895691,1290.595093 860.661072,1290.240356 861.464966,1290.085571 
	C876.174377,1287.256226 891.064636,1285.148560 905.562805,1281.487183 
	C931.456604,1274.948120 956.841858,1266.799561 981.549438,1256.403442 
	C1009.350525,1244.705322 1036.127686,1231.067139 1060.999756,1214.193359 
	C1082.112061,1199.870605 1102.857300,1184.694580 1122.029053,1167.912964 
	C1140.539307,1151.710327 1157.518433,1133.584595 1173.906006,1115.178223 
	C1190.915039,1096.073486 1205.597656,1075.052368 1219.229126,1053.326782 
	C1234.607910,1028.816284 1247.911865,1003.207703 1258.680420,976.438416 
	C1271.483887,944.610718 1281.843506,911.889099 1287.028809,877.852112 
	C1290.576294,854.567017 1294.060303,831.186829 1295.667480,807.718628 
	C1296.946167,789.045288 1295.875000,770.145508 1294.854614,751.400269 
	C1293.976929,735.276855 1292.070679,719.180359 1289.953247,703.159973 
	C1286.251953,675.158264 1279.326172,647.845337 1270.411255,621.085938 
	C1261.540161,594.457764 1250.728882,568.631165 1237.476929,543.812012 
	C1222.110474,515.032776 1204.438721,487.842468 1183.992432,462.419495 
	C1168.081055,442.635437 1151.595459,423.413635 1132.296265,406.788116 
	C1119.888428,396.099304 1107.891846,384.891205 1095.038330,374.770172 
	C1067.578491,353.147949 1037.775024,335.057892 1006.309998,319.965973 
	C988.347534,311.350525 969.748413,303.908356 951.018311,297.084137 
	C924.209595,287.316498 896.652527,279.943970 868.333313,275.990295 
	C849.075256,273.301666 829.771973,270.236511 810.394104,269.299683 
	C790.007080,268.314026 769.478943,269.112579 749.065491,270.161926 
	C732.443298,271.016388 715.778870,272.638428 699.348511,275.266693 
	C673.811768,279.351715 648.632812,285.307678 624.041077,293.477295 
	C586.941406,305.802155 551.455566,321.595886 517.972046,341.922729 
	C486.793701,360.850098 457.782104,382.607910 431.168762,407.471375 
	C410.305298,426.962982 391.055206,448.043182 373.830688,470.843170 
	C352.488495,499.093597 334.132538,529.168945 318.838074,561.173828 
	C302.551300,595.255188 290.255676,630.595947 281.631287,667.370789 
	C274.941620,695.895874 270.492859,724.765320 269.324249,753.896118 
	C268.188385,782.210815 267.553894,810.710083 271.988159,838.925415 
	C275.259857,859.743164 277.818634,880.737549 282.414246,901.268433 
	C290.726318,938.402649 303.715851,974.055298 320.670837,1008.150818 
	C333.255341,1033.457520 347.111786,1058.128784 364.311584,1080.602051 
	C378.852600,1099.601318 393.658600,1118.549561 409.987793,1135.983765 
	C425.132751,1152.153809 441.796906,1167.090698 458.991669,1181.098022 
	C476.473907,1195.339355 494.669922,1209.023926 513.929688,1220.677856 
	C535.027771,1233.444092 557.421082,1244.199829 579.763062,1254.744629 
	C603.351257,1265.877686 628.191406,1274.013062 653.587646,1279.871582 
	C674.730530,1284.749023 696.159424,1288.531494 717.600769,1291.917725 
	C731.429321,1294.101685 745.485291,1295.243652 759.482849,1295.851074 
	C774.619141,1296.507935 789.807556,1296.125000 804.970154,1295.942749 
	C811.750977,1295.861328 818.544678,1295.367065 825.296631,1294.697388 
	C836.287659,1293.607056 847.249207,1292.218994 859.112366,1290.856812 
z"/>
<path fill="#3B893E" opacity="1.000000" stroke="none" 
	d="
M858.667786,1290.906738 
	C847.249207,1292.218994 836.287659,1293.607056 825.296631,1294.697388 
	C818.544678,1295.367065 811.750977,1295.861328 804.970154,1295.942749 
	C789.807556,1296.125000 774.619141,1296.507935 759.482849,1295.851074 
	C745.485291,1295.243652 731.429321,1294.101685 717.600769,1291.917725 
	C696.159424,1288.531494 674.730530,1284.749023 653.587646,1279.871582 
	C628.191406,1274.013062 603.351257,1265.877686 579.763062,1254.744629 
	C557.421082,1244.199829 535.027771,1233.444092 513.929688,1220.677856 
	C494.669922,1209.023926 476.473907,1195.339355 458.991669,1181.098022 
	C441.796906,1167.090698 425.132751,1152.153809 409.987793,1135.983765 
	C393.658600,1118.549561 378.852600,1099.601318 364.311584,1080.602051 
	C347.111786,1058.128784 333.255341,1033.457520 320.670837,1008.150818 
	C303.715851,974.055298 290.726318,938.402649 282.414246,901.268433 
	C277.818634,880.737549 275.259857,859.743164 271.988159,838.925415 
	C267.553894,810.710083 268.188385,782.210815 269.324249,753.896118 
	C270.492859,724.765320 274.941620,695.895874 281.631287,667.370789 
	C290.255676,630.595947 302.551300,595.255188 318.838074,561.173828 
	C334.132538,529.168945 352.488495,499.093597 373.830688,470.843170 
	C391.055206,448.043182 410.305298,426.962982 431.168762,407.471375 
	C457.782104,382.607910 486.793701,360.850098 517.972046,341.922729 
	C551.455566,321.595886 586.941406,305.802155 624.041077,293.477295 
	C648.632812,285.307678 673.811768,279.351715 699.348511,275.266693 
	C715.778870,272.638428 732.443298,271.016388 749.065491,270.161926 
	C769.478943,269.112579 790.007080,268.314026 810.394104,269.299683 
	C829.771973,270.236511 849.075256,273.301666 868.333313,275.990295 
	C896.652527,279.943970 924.209595,287.316498 951.018311,297.084137 
	C969.748413,303.908356 988.347534,311.350525 1006.309998,319.965973 
	C1037.775024,335.057892 1067.578491,353.147949 1095.038330,374.770172 
	C1107.891846,384.891205 1119.888428,396.099304 1132.296265,406.788116 
	C1151.595459,423.413635 1168.081055,442.635437 1183.992432,462.419495 
	C1204.438721,487.842468 1222.110474,515.032776 1237.476929,543.812012 
	C1250.728882,568.631165 1261.540161,594.457764 1270.411255,621.085938 
	C1279.326172,647.845337 1286.251953,675.158264 1289.953247,703.159973 
	C1292.070679,719.180359 1293.976929,735.276855 1294.854614,751.400269 
	C1295.875000,770.145508 1296.946167,789.045288 1295.667480,807.718628 
	C1294.060303,831.186829 1290.576294,854.567017 1287.028809,877.852112 
	C1281.843506,911.889099 1271.483887,944.610718 1258.680420,976.438416 
	C1247.911865,1003.207703 1234.607910,1028.816284 1219.229126,1053.326782 
	C1205.597656,1075.052368 1190.915039,1096.073486 1173.906006,1115.178223 
	C1157.518433,1133.584595 1140.539307,1151.710327 1122.029053,1167.912964 
	C1102.857300,1184.694580 1082.112061,1199.870605 1060.999756,1214.193359 
	C1036.127686,1231.067139 1009.350525,1244.705322 981.549438,1256.403442 
	C956.841858,1266.799561 931.456604,1274.948120 905.562805,1281.487183 
	C891.064636,1285.148560 876.174377,1287.256226 861.464966,1290.085571 
	C860.661072,1290.240356 859.895691,1290.595093 858.667786,1290.906738 
M1049.674927,1172.150269 
	C1073.684326,1156.175659 1095.322510,1137.276611 1115.975952,1117.297363 
	C1126.026489,1107.574951 1135.355347,1097.001953 1144.167847,1086.130615 
	C1155.561401,1072.075317 1166.705811,1057.741211 1176.886108,1042.797241 
	C1192.071533,1020.505676 1204.576294,996.636047 1215.545044,971.972778 
	C1225.143188,950.391235 1233.234863,928.243896 1238.910767,905.349487 
	C1243.344604,887.465698 1247.063843,869.348877 1249.942871,851.152405 
	C1252.465454,835.207458 1254.170166,819.037659 1254.782471,802.911987 
	C1255.424805,785.994263 1254.757568,768.989014 1253.875854,752.063049 
	C1253.147949,738.092529 1251.885132,724.088318 1249.777588,710.263977 
	C1245.272949,680.717957 1237.962280,651.798523 1227.797729,623.673523 
	C1214.900391,587.986450 1198.571289,553.896606 1177.050415,522.613342 
	C1164.926392,504.989471 1151.850342,487.891113 1137.860840,471.716980 
	C1124.323120,456.065216 1109.772705,441.114014 1094.383911,427.282898 
	C1074.998291,409.859436 1053.850830,394.573090 1031.648193,380.721954 
	C1006.596008,365.093201 980.507751,351.499084 952.888428,341.339600 
	C931.756042,333.566254 909.896729,327.664551 888.153015,321.685577 
	C863.272461,314.843964 837.607422,312.244354 811.990540,310.212860 
	C797.677063,309.077728 783.187134,309.606323 768.801392,310.101227 
	C754.764099,310.584167 740.638916,311.154663 726.766602,313.165558 
	C705.933777,316.185455 685.049194,319.513153 664.617432,324.481781 
	C632.151672,332.376862 600.828796,344.081696 571.262329,359.634552 
	C551.155396,370.211365 531.681396,382.186279 512.784729,394.822571 
	C485.494598,413.071564 460.512512,434.267242 438.650116,458.901062 
	C428.114899,470.771729 417.457214,482.576965 407.629364,495.023315 
	C385.856415,522.597168 367.808167,552.503845 353.146149,584.470825 
	C339.976257,613.184631 329.598511,642.818604 322.191437,673.537170 
	C315.717194,700.387024 311.540253,727.619263 310.251160,755.126953 
	C309.326813,774.851440 310.453003,794.687256 311.032806,814.462585 
	C311.638580,835.122986 314.938782,855.451111 318.873871,875.733704 
	C326.299805,914.009216 338.827271,950.551392 355.408844,985.726135 
	C367.261902,1010.870117 381.183319,1034.933350 397.920471,1057.107910 
	C411.435150,1075.013062 425.434143,1092.741089 440.924347,1108.913574 
	C456.349762,1125.018433 473.485413,1139.583740 490.621307,1153.927734 
	C513.855347,1173.376587 539.534302,1189.357422 566.507507,1203.090210 
	C592.889160,1216.521851 620.062988,1228.243774 648.730774,1235.934937 
	C665.731262,1240.495605 682.914307,1244.500854 700.186035,1247.884033 
	C712.775757,1250.350220 725.608154,1251.785645 738.398376,1252.966064 
	C753.208130,1254.332642 768.080688,1255.380005 782.943970,1255.682007 
	C793.328796,1255.893188 803.761047,1254.826782 814.141052,1253.958740 
	C827.956665,1252.803711 841.847595,1251.953003 855.518494,1249.787109 
	C884.330505,1245.222534 912.478699,1237.935669 940.038208,1228.174927 
	C978.870911,1214.421509 1015.139465,1195.827393 1049.674927,1172.150269 
z"/>
<path fill="#000000" opacity="1.000000" stroke="none" 
	d="
M1049.371338,1172.351807 
	C1015.139465,1195.827393 978.870911,1214.421509 940.038208,1228.174927 
	C912.478699,1237.935669 884.330505,1245.222534 855.518494,1249.787109 
	C841.847595,1251.953003 827.956665,1252.803711 814.141052,1253.958740 
	C803.761047,1254.826782 793.328796,1255.893188 782.943970,1255.682007 
	C768.080688,1255.380005 753.208130,1254.332642 738.398376,1252.966064 
	C725.608154,1251.785645 712.775757,1250.350220 700.186035,1247.884033 
	C682.914307,1244.500854 665.731262,1240.495605 648.730774,1235.934937 
	C620.062988,1228.243774 592.889160,1216.521851 566.507507,1203.090210 
	C539.534302,1189.357422 513.855347,1173.376587 490.621307,1153.927734 
	C473.485413,1139.583740 456.349762,1125.018433 440.924347,1108.913574 
	C425.434143,1092.741089 411.435150,1075.013062 397.920471,1057.107910 
	C381.183319,1034.933350 367.261902,1010.870117 355.408844,985.726135 
	C338.827271,950.551392 326.299805,914.009216 318.873871,875.733704 
	C314.938782,855.451111 311.638580,835.122986 311.032806,814.462585 
	C310.453003,794.687256 309.326813,774.851440 310.251160,755.126953 
	C311.540253,727.619263 315.717194,700.387024 322.191437,673.537170 
	C329.598511,642.818604 339.976257,613.184631 353.146149,584.470825 
	C367.808167,552.503845 385.856415,522.597168 407.629364,495.023315 
	C417.457214,482.576965 428.114899,470.771729 438.650116,458.901062 
	C460.512512,434.267242 485.494598,413.071564 512.784729,394.822571 
	C531.681396,382.186279 551.155396,370.211365 571.262329,359.634552 
	C600.828796,344.081696 632.151672,332.376862 664.617432,324.481781 
	C685.049194,319.513153 705.933777,316.185455 726.766602,313.165558 
	C740.638916,311.154663 754.764099,310.584167 768.801392,310.101227 
	C783.187134,309.606323 797.677063,309.077728 811.990540,310.212860 
	C837.607422,312.244354 863.272461,314.843964 888.153015,321.685577 
	C909.896729,327.664551 931.756042,333.566254 952.888428,341.339600 
	C980.507751,351.499084 1006.596008,365.093201 1031.648193,380.721954 
	C1053.850830,394.573090 1074.998291,409.859436 1094.383911,427.282898 
	C1109.772705,441.114014 1124.323120,456.065216 1137.860840,471.716980 
	C1151.850342,487.891113 1164.926392,504.989471 1177.050415,522.613342 
	C1198.571289,553.896606 1214.900391,587.986450 1227.797729,623.673523 
	C1237.962280,651.798523 1245.272949,680.717957 1249.777588,710.263977 
	C1251.885132,724.088318 1253.147949,738.092529 1253.875854,752.063049 
	C1254.757568,768.989014 1255.424805,785.994263 1254.782471,802.911987 
	C1254.170166,819.037659 1252.465454,835.207458 1249.942871,851.152405 
	C1247.063843,869.348877 1243.344604,887.465698 1238.910767,905.349487 
	C1233.234863,928.243896 1225.143188,950.391235 1215.545044,971.972778 
	C1204.576294,996.636047 1192.071533,1020.505676 1176.886108,1042.797241 
	C1166.705811,1057.741211 1155.561401,1072.075317 1144.167847,1086.130615 
	C1135.355347,1097.001953 1126.026489,1107.574951 1115.975952,1117.297363 
	C1095.322510,1137.276611 1073.684326,1156.175659 1049.371338,1172.351807 
M1210.140747,652.199402 
	C1209.927124,651.071411 1209.837402,649.902649 1209.481934,648.821350 
	C1201.254150,623.791199 1191.739380,599.279663 1178.988525,576.168213 
	C1171.652710,562.871887 1164.404541,549.459167 1156.035522,536.814575 
	C1136.896362,507.897064 1115.104736,481.070587 1089.227051,457.834625 
	C1075.712280,445.699554 1062.295288,433.307434 1047.725220,422.530762 
	C1026.521484,406.847473 1004.111267,392.862091 980.286194,381.322601 
	C949.751831,366.533478 918.202759,354.564514 885.033081,347.158478 
	C873.484863,344.580048 861.926880,341.873047 850.236938,340.150482 
	C838.816711,338.467621 827.223145,337.958008 815.704407,336.947205 
	C799.040222,335.484863 782.443909,334.526459 765.627197,335.738831 
	C747.987976,337.010468 730.291382,337.396362 712.917786,341.008240 
	C694.400879,344.857819 675.658325,348.007263 657.523621,353.230774 
	C618.297302,364.529388 581.294556,381.141815 546.572937,402.769714 
	C519.685364,419.517853 494.520142,438.557922 472.063538,460.814758 
	C457.514404,475.234497 444.074799,490.863464 431.012207,506.672943 
	C410.018127,532.081909 393.192230,560.212280 378.959259,589.941101 
	C368.914246,610.922424 360.656311,632.531982 353.882538,654.781677 
	C344.084229,686.965942 338.576202,719.919189 336.180939,753.361877 
	C335.154633,767.690796 335.372589,782.187988 336.152222,796.547485 
	C337.172333,815.335510 338.168884,834.253540 341.264252,852.766357 
	C344.835236,874.123840 349.760345,895.366455 355.760406,916.179565 
	C364.315186,945.854614 377.167389,973.849365 392.307251,1000.822449 
	C411.783203,1035.520752 435.597565,1066.968872 463.226440,1095.436523 
	C475.174042,1107.746704 488.474274,1118.787231 501.540710,1129.959351 
	C525.890259,1150.778931 552.875916,1167.714844 581.435608,1182.067017 
	C613.521362,1198.191284 647.162415,1209.979370 682.161438,1218.308105 
	C715.499695,1226.241455 749.274658,1229.255127 783.344177,1229.864990 
	C794.230469,1230.060059 805.202332,1229.184937 816.033813,1227.927856 
	C835.809387,1225.632812 855.677002,1223.561157 875.203125,1219.815796 
	C907.521362,1213.616821 938.604553,1203.139282 968.451843,1189.182983 
	C993.632996,1177.408447 1017.962341,1164.050415 1040.411865,1147.631348 
	C1054.529541,1137.306030 1068.245972,1126.342896 1081.404419,1114.823120 
	C1091.995605,1105.550781 1101.774780,1095.288086 1111.369385,1084.958862 
	C1120.149536,1075.506470 1128.605225,1065.689697 1136.493652,1055.484375 
	C1158.398438,1027.145752 1176.628052,996.608826 1191.204468,963.809326 
	C1200.186523,943.598022 1207.613403,922.914429 1213.598267,901.677979 
	C1221.945190,872.059998 1226.828735,841.800659 1228.826538,811.150085 
	C1229.761475,796.807312 1229.518066,782.330627 1228.869995,767.956970 
	C1228.148926,751.963257 1226.646240,735.987549 1224.966797,720.058472 
	C1222.555420,697.188843 1217.252686,674.894653 1210.140747,652.199402 
z"/>
<path fill="#3B893E" opacity="1.000000" stroke="none" 
	d="
M1210.302979,652.572266 
	C1217.252686,674.894653 1222.555420,697.188843 1224.966797,720.058472 
	C1226.646240,735.987549 1228.148926,751.963257 1228.869995,767.956970 
	C1229.518066,782.330627 1229.761475,796.807312 1228.826538,811.150085 
	C1226.828735,841.800659 1221.945190,872.059998 1213.598267,901.677979 
	C1207.613403,922.914429 1200.186523,943.598022 1191.204468,963.809326 
	C1176.628052,996.608826 1158.398438,1027.145752 1136.493652,1055.484375 
	C1128.605225,1065.689697 1120.149536,1075.506470 1111.369385,1084.958862 
	C1101.774780,1095.288086 1091.995605,1105.550781 1081.404419,1114.823120 
	C1068.245972,1126.342896 1054.529541,1137.306030 1040.411865,1147.631348 
	C1017.962341,1164.050415 993.632996,1177.408447 968.451843,1189.182983 
	C938.604553,1203.139282 907.521362,1213.616821 875.203125,1219.815796 
	C855.677002,1223.561157 835.809387,1225.632812 816.033813,1227.927856 
	C805.202332,1229.184937 794.230469,1230.060059 783.344177,1229.864990 
	C749.274658,1229.255127 715.499695,1226.241455 682.161438,1218.308105 
	C647.162415,1209.979370 613.521362,1198.191284 581.435608,1182.067017 
	C552.875916,1167.714844 525.890259,1150.778931 501.540710,1129.959351 
	C488.474274,1118.787231 475.174042,1107.746704 463.226440,1095.436523 
	C435.597565,1066.968872 411.783203,1035.520752 392.307251,1000.822449 
	C377.167389,973.849365 364.315186,945.854614 355.760406,916.179565 
	C349.760345,895.366455 344.835236,874.123840 341.264252,852.766357 
	C338.168884,834.253540 337.172333,815.335510 336.152222,796.547485 
	C335.372589,782.187988 335.154633,767.690796 336.180939,753.361877 
	C338.576202,719.919189 344.084229,686.965942 353.882538,654.781677 
	C360.656311,632.531982 368.914246,610.922424 378.959259,589.941101 
	C393.192230,560.212280 410.018127,532.081909 431.012207,506.672943 
	C444.074799,490.863464 457.514404,475.234497 472.063538,460.814758 
	C494.520142,438.557922 519.685364,419.517853 546.572937,402.769714 
	C581.294556,381.141815 618.297302,364.529388 657.523621,353.230774 
	C675.658325,348.007263 694.400879,344.857819 712.917786,341.008240 
	C730.291382,337.396362 747.987976,337.010468 765.627197,335.738831 
	C782.443909,334.526459 799.040222,335.484863 815.704407,336.947205 
	C827.223145,337.958008 838.816711,338.467621 850.236938,340.150482 
	C861.926880,341.873047 873.484863,344.580048 885.033081,347.158478 
	C918.202759,354.564514 949.751831,366.533478 980.286194,381.322601 
	C1004.111267,392.862091 1026.521484,406.847473 1047.725220,422.530762 
	C1062.295288,433.307434 1075.712280,445.699554 1089.227051,457.834625 
	C1115.104736,481.070587 1136.896362,507.897064 1156.035522,536.814575 
	C1164.404541,549.459167 1171.652710,562.871887 1178.988525,576.168213 
	C1191.739380,599.279663 1201.254150,623.791199 1209.481934,648.821350 
	C1209.837402,649.902649 1209.927124,651.071411 1210.302979,652.572266 
M921.172607,1149.830200 
	C918.664551,1145.916748 916.253540,1141.935181 913.583191,1138.135742 
	C912.876648,1137.130615 911.371094,1136.687134 910.232361,1135.985718 
	C909.697632,1137.317993 908.654541,1138.675171 908.718323,1139.978149 
	C908.962952,1144.978394 909.562622,1149.961426 910.029846,1154.950806 
	C906.384521,1150.907471 903.753418,1146.530762 900.845215,1142.346436 
	C900.138611,1141.329590 898.520630,1140.946167 897.321655,1140.271606 
	C897.060242,1140.731323 896.798828,1141.191162 896.537415,1141.651001 
	C900.541992,1147.953247 904.476379,1154.302612 908.628235,1160.506348 
	C909.238892,1161.418701 910.881714,1161.640137 912.046997,1162.181274 
	C912.567078,1161.003906 913.593628,1159.793701 913.520020,1158.654663 
	C913.190918,1153.562256 912.548096,1148.490234 912.018555,1143.410767 
	C913.683594,1144.362305 914.644592,1145.615723 915.502563,1146.936157 
	C917.583801,1150.138916 919.530640,1153.433960 921.732727,1156.549561 
	C922.254883,1157.288330 923.677307,1157.953125 924.486450,1157.770142 
	C925.312195,1157.583618 926.541138,1156.258545 926.480835,1155.523071 
	C925.823425,1147.509521 924.947449,1139.513916 924.130920,1131.513550 
	C923.463989,1131.472412 922.797058,1131.431274 922.130188,1131.390137 
	C921.837646,1132.812012 921.215820,1134.256836 921.312744,1135.651611 
	C921.634888,1140.283569 922.215515,1144.897583 922.197266,1149.886963 
	C922.031677,1150.011108 921.866028,1150.135132 921.172607,1149.830200 
M755.144653,909.375610 
	C756.493774,901.475403 759.687012,893.734314 757.349304,883.991882 
	C756.651062,886.334229 756.301147,887.235046 756.116821,888.168579 
	C754.294556,897.397278 749.950989,905.351196 743.774414,912.333557 
	C742.854675,913.373352 740.913147,914.855652 740.290710,914.527588 
	C739.054993,913.876221 737.869812,912.200684 737.619812,910.780151 
	C736.842957,906.365906 736.128357,901.877014 736.081177,897.409790 
	C735.928162,882.912109 736.225037,868.409302 736.034119,853.912598 
	C735.976257,849.521362 737.602356,848.017517 741.807251,847.920898 
	C745.863770,847.827637 749.905273,847.081909 753.953308,846.622864 
	C753.901917,846.082092 753.850464,845.541321 753.799072,845.000610 
	C749.349976,844.781799 744.888184,844.253723 740.455627,844.436401 
	C736.497742,844.599548 735.262329,843.019165 735.007996,839.298767 
	C734.645325,833.993591 733.896851,828.698608 732.995361,823.453857 
	C732.580688,821.041443 732.054810,818.017822 730.424072,816.602051 
	C728.310791,814.767151 725.096191,813.990234 722.224976,813.439148 
	C721.726685,813.343506 720.071045,816.550720 719.826355,818.351501 
	C718.952759,824.780701 718.165833,831.249817 717.913147,837.725952 
	C717.724182,842.568665 716.220093,844.945801 710.959351,845.107849 
	C706.938049,845.231628 702.956604,846.647095 698.957397,847.487915 
	C699.048950,847.953979 699.140503,848.419983 699.232056,848.886047 
	C703.329834,848.886047 707.469482,849.250488 711.514038,848.786499 
	C715.808350,848.293884 716.805786,849.669067 716.835693,853.893433 
	C716.931396,867.375916 717.102722,880.888306 718.103882,894.325134 
	C719.064514,907.217163 727.047119,915.928040 739.281494,919.143616 
	C746.007507,920.911377 753.029724,917.827271 756.043152,911.657227 
	C756.343872,911.041382 755.909668,910.066467 755.849731,909.998596 
	C756.096436,910.032593 756.343140,910.066589 756.589844,910.100586 
	C756.326111,909.864624 756.062439,909.628662 755.144653,909.375610 
M688.244141,531.747009 
	C662.857361,560.782166 651.671082,594.545227 656.327271,632.821472 
	C665.142395,705.284973 730.350586,754.939941 802.707947,744.935730 
	C874.977356,734.943604 925.146057,664.170776 910.697144,592.742004 
	C899.333862,536.566956 852.811707,495.199219 798.288940,489.720673 
	C754.849060,485.355743 718.465454,499.501129 688.244141,531.747009 
M992.000854,591.500000 
	C992.000854,560.507935 992.011902,529.515869 991.993652,498.523804 
	C991.988586,489.996887 986.816772,486.786499 979.152283,490.753113 
	C957.016479,502.209137 942.267029,520.097046 939.299377,544.782227 
	C936.466187,568.348511 936.561768,592.298096 936.024841,616.093933 
	C935.808472,625.683716 943.876892,632.663208 953.570312,632.970154 
	C956.128967,633.051208 958.692322,632.982361 961.422852,632.982361 
	C961.198181,635.286499 961.127747,636.784607 960.897217,638.257629 
	C957.087463,662.593689 953.144470,686.909668 949.512390,711.272095 
	C948.613464,717.301575 947.585388,723.670898 948.588379,729.547607 
	C950.492676,740.705261 961.562012,747.444885 973.508606,746.016113 
	C983.827026,744.782043 991.968506,735.426453 991.980530,724.466064 
	C992.028870,680.477417 992.000671,636.488708 992.000854,591.500000 
M630.082153,556.022949 
	C629.261047,561.696960 624.846680,560.041321 621.472229,560.053589 
	C617.827515,560.066895 617.380676,557.216187 617.363037,554.406067 
	C617.312988,546.406677 617.342773,538.406860 617.337402,530.407166 
	C617.330017,519.407715 617.429993,508.406647 617.265198,497.409546 
	C617.176392,491.480225 613.988586,488.617676 608.565613,489.006195 
	C604.016479,489.332062 601.611145,492.338074 601.593384,498.150513 
	C601.536743,516.649597 601.540039,535.149048 601.584167,553.648193 
	C601.593933,557.733826 600.543396,560.349792 595.669250,560.225342 
	C589.665710,560.072021 588.837830,559.497070 588.829895,553.242615 
	C588.806519,534.910034 588.879028,516.577087 588.782410,498.244995 
	C588.749512,492.004883 585.943604,488.990570 580.760071,488.998749 
	C575.450745,489.007141 573.005127,491.889404 573.001343,498.258514 
	C572.988098,520.757629 572.976501,543.256714 573.006897,565.755798 
	C573.018188,574.111877 577.323792,580.654297 585.054321,583.516785 
	C588.096375,584.643188 591.455261,584.914124 595.029724,585.648499 
	C595.029724,586.932129 595.105591,588.392761 595.018494,589.843506 
	C593.530518,614.624512 592.017212,639.403992 590.520386,664.184509 
	C589.325012,683.975220 587.832153,703.754700 587.065002,723.562195 
	C586.539001,737.145081 596.755249,746.458069 610.695496,746.164062 
	C622.659058,745.911743 632.250183,735.315918 631.537109,722.756165 
	C629.185486,681.334778 626.690125,639.921570 624.321411,598.501099 
	C624.069336,594.092834 624.287476,589.657776 624.287476,585.242554 
	C638.767273,585.035156 647.338623,575.617737 646.122620,561.871826 
	C645.698425,557.076233 646.055237,552.211548 646.054932,547.378418 
	C646.053955,530.879089 646.099976,514.379517 646.027710,497.880463 
	C645.999817,491.522064 642.523010,488.325134 636.751099,489.014374 
	C632.456360,489.527222 630.148438,492.778748 630.137939,498.605988 
	C630.103821,517.438477 630.119507,536.271118 630.082153,556.022949 
M724.972351,1028.130981 
	C725.344482,1030.224609 725.716553,1032.318359 726.081116,1034.369507 
	C736.385376,1033.517090 739.740112,1030.477051 740.978210,1021.044373 
	C741.627808,1016.094360 742.231201,1011.134338 742.685791,1006.163330 
	C743.932434,992.531250 744.534729,978.932922 741.182434,965.439819 
	C740.126404,961.189148 738.410034,958.381958 733.494690,958.846008 
	C728.820679,959.287354 726.165161,962.004150 725.889893,967.038208 
	C725.535156,973.523499 725.660034,980.065491 724.793457,986.476990 
	C724.454468,988.984924 722.490356,992.446045 720.384460,993.301086 
	C715.833618,995.148865 710.712830,995.592957 705.530640,996.672607 
	C705.065796,989.838928 704.795593,984.380249 704.296631,978.942627 
	C703.779663,973.309204 703.145386,967.681702 702.371216,962.078003 
	C701.513367,955.868347 698.873108,954.253540 691.274719,954.961609 
	C686.281738,955.426819 684.883057,957.505188 684.895020,963.577759 
	C684.949402,991.223389 684.927185,1018.869141 684.913086,1046.514893 
	C684.911804,1048.992554 683.827820,1052.180664 684.990906,1053.725830 
	C685.942322,1054.989624 689.548645,1054.039795 691.886108,1054.519287 
	C696.970215,1055.562134 699.396423,1053.068848 700.490540,1048.561401 
	C701.077332,1046.143677 701.835205,1043.720947 702.028931,1041.262085 
	C703.009277,1028.817993 703.743164,1016.353760 704.824768,1003.919312 
	C704.948914,1002.491150 706.615601,1000.122498 707.712158,1000.036377 
	C712.944214,999.625488 718.226379,999.852295 724.919434,999.852295 
	C724.919434,1009.319824 724.919434,1018.270020 724.972351,1028.130981 
M578.122925,882.019775 
	C578.452576,883.481323 578.693787,884.969543 579.125610,886.400269 
	C583.697815,901.549194 596.565552,907.258179 609.070496,899.730896 
	C609.272766,899.609070 609.674011,899.817810 609.866821,899.851807 
	C609.866821,904.029480 609.469788,908.229919 610.036072,912.296204 
	C610.314819,914.298340 612.057068,917.304382 613.681274,917.717773 
	C625.262756,920.665283 632.201233,915.498718 632.783691,903.527100 
	C633.350403,891.881470 634.315918,880.140442 633.405762,868.575134 
	C632.714539,859.790588 630.047546,850.961670 626.979675,842.623474 
	C624.222839,835.130798 617.527954,834.593994 612.828369,840.561829 
	C601.996948,838.449707 591.895203,842.752686 585.457458,852.628479 
	C579.838318,861.248535 577.433472,870.826599 578.122925,882.019775 
M893.233398,863.301575 
	C891.177124,856.299805 889.722778,849.043884 886.901794,842.365051 
	C883.845886,835.130066 877.160950,834.599060 872.942383,840.691040 
	C865.095581,838.236023 858.228455,840.774902 852.015869,845.525146 
	C841.153320,853.830994 835.038269,873.805481 839.215881,886.775574 
	C844.057251,901.806641 856.769592,907.355591 868.968567,899.780823 
	C869.188293,899.644409 869.585205,899.793274 869.867798,899.807434 
	C869.867798,903.949463 869.594604,908.104370 869.990234,912.194580 
	C870.171143,914.064758 871.204773,916.726257 872.647217,917.455627 
	C880.678040,921.516541 891.377502,916.444946 892.048767,907.574707 
	C893.139404,893.160522 892.984375,878.652100 893.233398,863.301575 
M768.969849,872.504883 
	C768.915466,877.999634 769.073364,883.506714 768.755920,888.986267 
	C768.303589,896.793640 768.249756,904.348694 775.844971,909.708557 
	C778.278748,909.073975 781.473145,907.200500 784.233521,907.704468 
	C795.240112,909.713867 804.058350,904.856628 812.643433,899.420593 
	C815.498474,897.612854 818.416016,894.757324 819.636414,891.712036 
	C825.000732,878.325562 821.085693,866.158203 813.736633,854.582520 
	C810.565308,849.587158 806.428406,846.616272 799.786682,846.971741 
	C804.265869,840.033569 803.489746,833.646667 800.318848,827.078430 
	C797.634705,821.518188 793.006409,819.556152 787.212097,821.711182 
	C783.893555,822.945374 780.401306,824.123230 776.914673,824.395264 
	C772.099976,824.770874 770.327393,826.883728 770.234802,831.583984 
	C769.972534,844.895264 769.415161,858.200745 768.969849,872.504883 
M862.315186,1000.232361 
	C855.544128,992.903503 846.694336,991.587524 837.572083,992.215942 
	C836.343323,981.071838 835.309814,970.528992 833.972778,960.024719 
	C833.209412,954.027527 827.276367,948.945923 821.512146,949.428772 
	C820.283447,949.531738 818.417786,951.765259 818.265869,953.170654 
	C817.803284,957.450867 818.112854,961.808350 817.982849,966.131653 
	C817.343445,987.403015 816.520630,1008.670227 816.094238,1029.945557 
	C815.995422,1034.874634 816.828918,1039.911743 817.911560,1044.747314 
	C818.818542,1048.798462 821.345093,1051.695435 826.251343,1050.202881 
	C833.183777,1048.094238 840.101318,1046.261475 847.507629,1046.499878 
	C849.754883,1046.572021 852.244995,1044.989502 854.316650,1043.679321 
	C868.706543,1034.578979 872.553711,1014.836121 862.315186,1000.232361 
M651.651367,904.782959 
	C655.090210,907.411316 657.821960,906.327942 660.927795,903.730103 
	C667.302490,898.398132 668.144836,891.103882 669.432434,883.648926 
	C671.472229,871.839355 671.858093,860.165161 668.861389,848.496887 
	C667.695679,843.957764 670.928711,838.424133 675.386963,837.476868 
	C681.863098,836.100891 684.607971,837.990906 685.609497,844.614990 
	C685.857483,846.255432 685.971130,847.930420 685.980957,849.590393 
	C686.082947,866.889832 686.134888,884.189575 686.251099,901.488892 
	C686.264465,903.475769 686.568359,905.462097 686.765564,907.445984 
	C687.163025,911.445923 689.476318,911.940796 692.218872,909.856140 
	C695.943542,907.025024 698.162109,903.299622 697.720032,898.244446 
	C697.286316,893.283691 697.465881,888.269348 697.031433,883.308655 
	C695.945007,870.900818 695.414551,858.377014 693.250122,846.149475 
	C691.047974,833.708618 679.388733,830.263062 669.520264,838.456238 
	C667.233582,840.354797 665.770996,840.377502 664.418030,837.895996 
	C661.513977,832.569519 656.809631,831.546021 651.265930,831.819763 
	C647.744202,831.993774 646.024780,833.484680 645.954224,836.951782 
	C645.561523,856.245117 645.260681,875.540894 644.719360,894.830017 
	C644.581238,899.751404 646.693359,902.679443 651.651367,904.782959 
M757.239807,1033.070435 
	C764.261536,1041.876343 772.770691,1047.223145 784.489502,1044.839722 
	C785.236938,1048.582397 785.570251,1052.449829 786.827881,1055.988892 
	C788.379089,1060.354004 792.118530,1064.064209 796.520996,1062.882568 
	C799.568359,1062.064819 802.487793,1057.925171 803.885864,1054.604980 
	C805.293579,1051.261963 805.188721,1047.073120 804.982971,1043.296631 
	C804.213562,1029.172852 803.294983,1015.051636 802.062927,1000.961853 
	C801.709839,996.924072 800.402954,992.888916 799.001160,989.046631 
	C797.629639,985.286926 794.090210,983.731323 790.529724,984.575623 
	C789.203003,984.890320 787.951660,988.299011 787.808350,990.375671 
	C786.902710,1003.497131 786.333191,1016.641541 785.610840,1029.776123 
	C785.501709,1031.760132 785.754333,1034.094727 784.801636,1035.618164 
	C783.596252,1037.545654 781.463440,1039.807007 779.479675,1040.076416 
	C777.503113,1040.344971 774.833618,1038.733398 773.187622,1037.182373 
	C771.900635,1035.969849 771.344788,1033.635254 771.106018,1031.719238 
	C770.283447,1025.117676 769.903015,1018.460510 769.050781,1011.863647 
	C768.113403,1004.607605 766.952454,997.374878 765.663452,990.172302 
	C765.082825,986.927795 763.161255,984.632263 759.448059,985.016541 
	C755.804565,985.393616 755.608826,987.962830 755.880066,990.899292 
	C755.999268,992.189514 755.579529,993.530762 755.396606,994.847656 
	C753.646484,1007.448547 752.702637,1020.015320 757.239807,1033.070435 
M513.348450,886.542419 
	C513.348450,878.451538 513.348450,870.360657 513.348450,862.247131 
	C514.387085,862.040222 515.230103,861.965698 516.009521,861.702759 
	C524.875549,858.712158 533.217712,853.935669 535.454895,844.671753 
	C537.939331,834.383850 535.499084,824.005249 527.667358,815.999817 
	C520.527954,808.702148 509.556030,808.308533 501.244354,814.347290 
	C500.118622,815.165222 498.354248,815.489929 496.915588,815.420654 
	C492.168335,815.192078 490.436401,817.204102 490.790497,821.749817 
	C492.016754,837.491760 493.179413,853.243835 493.985138,869.011536 
	C494.621826,881.472595 494.590912,893.967041 495.160614,906.432800 
	C495.230743,907.966797 497.173126,910.688843 498.258972,910.694458 
	C504.954315,910.728638 511.155731,904.677734 512.078613,897.798279 
	C512.543335,894.334229 512.889404,890.854187 513.348450,886.542419 
M1058.951904,913.410645 
	C1060.625244,907.878845 1063.713135,902.349976 1063.724609,896.814758 
	C1063.771729,874.222961 1062.897461,851.628784 1062.310791,829.036804 
	C1062.220337,825.549927 1059.976074,824.092102 1056.741089,823.930359 
	C1051.943481,823.690552 1048.327881,827.076233 1048.051758,832.123291 
	C1047.588379,840.591919 1047.090942,849.060974 1046.813965,857.536560 
	C1046.697144,861.108582 1045.587280,863.080322 1041.870605,864.407959 
	C1037.744995,865.881531 1033.717163,868.268616 1030.347534,871.093811 
	C1021.750977,878.301636 1022.002075,890.649780 1031.079834,897.294617 
	C1034.874634,900.072327 1039.833130,901.259827 1044.934448,903.460144 
	C1045.471313,907.733337 1046.022217,913.151428 1046.904907,918.514832 
	C1047.169067,920.119690 1048.074829,922.504211 1049.202148,922.849854 
	C1050.508057,923.250244 1052.824829,922.212891 1053.911865,921.056274 
	C1055.810303,919.036255 1057.103882,916.447815 1058.951904,913.410645 
M992.313477,901.985046 
	C1001.030029,894.079163 1007.455261,884.598572 1011.936523,873.690491 
	C1008.445496,876.045471 1005.828064,879.156677 1002.854492,881.878784 
	C993.616028,890.336121 987.470215,890.811218 979.190430,878.362244 
	C977.860474,876.362549 977.303101,873.780090 976.689087,871.389832 
	C975.831238,868.050293 976.823608,866.056213 980.750061,865.738647 
	C987.566650,865.187378 993.690857,862.694397 998.658691,857.855835 
	C1003.919739,852.731689 1003.988831,846.741150 998.664673,841.755188 
	C996.642761,839.861511 994.235718,838.130737 991.691956,837.086121 
	C981.189941,832.773254 975.310181,834.338684 969.078003,843.743042 
	C965.342163,849.380310 961.859985,855.401672 959.548035,861.720337 
	C955.128601,873.798584 957.416016,885.427063 964.791870,895.789429 
	C971.373718,905.036377 981.722717,907.325867 992.313477,901.985046 
M546.518738,886.023010 
	C547.689819,892.915710 548.550537,899.883545 550.193359,906.661926 
	C550.801147,909.169250 553.248169,911.230896 554.856323,913.495850 
	C557.291809,911.258240 560.133057,909.309387 562.008301,906.673218 
	C563.108215,905.126953 562.825806,902.491577 562.897400,900.337219 
	C563.273621,889.017090 564.221008,877.663513 563.695801,866.380920 
	C563.195190,855.626953 561.490967,844.881165 559.600586,834.259094 
	C558.610046,828.692993 555.995605,823.449341 550.224915,820.852966 
	C545.383728,818.674744 543.594604,819.625061 543.786499,824.823547 
	C544.528870,844.938049 545.469055,865.045105 546.518738,886.023010 
M922.662231,900.988281 
	C926.912109,902.035950 931.261475,903.174011 934.962463,899.750793 
	C947.260071,888.376038 945.696655,874.832214 933.400146,865.953186 
	C931.025146,864.238220 928.082764,863.249146 925.311584,862.154297 
	C918.442505,859.440430 916.854431,853.947144 921.142761,847.760132 
	C923.269653,844.691528 925.255798,844.661560 927.179932,847.774841 
	C928.885498,850.534424 930.403564,853.409912 932.199646,856.578796 
	C932.812378,855.626465 933.252747,855.249634 933.291443,854.835388 
	C933.823547,849.130676 931.048096,844.110962 926.098206,841.717041 
	C921.185120,839.340942 912.513550,840.527039 908.728027,844.093140 
	C904.805908,847.787720 903.794861,853.264832 906.342896,858.819092 
	C909.225525,865.102539 914.183777,869.399048 920.156738,872.727173 
	C925.554138,875.734619 926.186462,879.199036 922.542664,884.102478 
	C917.896851,890.354065 914.256042,890.854919 908.231323,885.917297 
	C906.878174,884.808350 905.815796,883.344666 904.619568,882.044312 
	C907.458435,891.068115 912.413269,898.072815 922.662231,900.988281 
M656.647583,1146.081665 
	C655.281616,1148.028931 653.915710,1149.976318 652.549805,1151.923706 
	C652.157715,1146.673950 652.815857,1141.906006 653.158142,1137.115479 
	C653.255432,1135.752808 652.433594,1134.324219 652.033264,1132.925903 
	C650.674622,1133.757935 648.923340,1134.293335 648.029541,1135.476440 
	C645.090454,1139.366943 642.462280,1143.492310 639.714661,1147.527466 
	C639.337097,1143.682617 639.734619,1140.227905 640.148560,1136.775024 
	C641.016235,1129.535767 641.019775,1129.536133 638.036011,1128.177124 
	C637.035400,1135.687134 635.969360,1143.069458 635.150024,1150.479248 
	C635.021545,1151.641357 636.013489,1152.927246 636.487366,1154.156006 
	C637.767090,1153.527954 639.481934,1153.228394 640.248718,1152.213013 
	C643.072510,1148.473267 645.582214,1144.496460 648.210083,1140.608765 
	C648.610168,1140.789917 649.010315,1140.971069 649.410461,1141.152222 
	C648.875732,1146.044800 648.239136,1150.930176 647.889587,1155.835938 
	C647.816833,1156.857178 648.562012,1158.296387 649.395569,1158.892456 
	C649.925842,1159.271729 651.779297,1158.779053 652.245544,1158.117676 
	C656.792664,1151.667969 661.172180,1145.100098 665.599426,1138.565796 
	C665.270447,1138.163208 664.941528,1137.760742 664.612549,1137.358154 
	C663.568298,1137.846191 662.198059,1138.069092 661.543579,1138.874023 
	C659.869812,1140.932495 658.514709,1143.250244 656.647583,1146.081665 
M558.473633,1085.207153 
	C554.952454,1090.257324 551.337219,1095.246094 547.979004,1100.402344 
	C547.184998,1101.621582 547.255066,1103.403687 546.927673,1104.926758 
	C548.137939,1104.092285 549.660767,1103.493896 550.502197,1102.380737 
	C553.524597,1098.382080 556.316650,1094.209351 559.195740,1090.102417 
	C559.399109,1096.909058 558.488708,1103.158569 558.005127,1109.440918 
	C557.881042,1111.052368 559.104187,1112.767456 560.140625,1115.627441 
	C565.412598,1108.101929 569.752441,1102.029541 573.902649,1095.830078 
	C574.433167,1095.037720 573.975342,1093.583740 573.975342,1092.436157 
	C573.456848,1092.383301 572.938293,1092.330566 572.419800,1092.277710 
	C570.802795,1094.577148 569.190002,1096.879517 567.567871,1099.175293 
	C565.980774,1101.421265 564.384033,1103.660400 562.791565,1105.902588 
	C562.421204,1099.949585 563.170044,1094.433838 563.798828,1088.904297 
	C564.243164,1084.996948 562.674133,1083.700806 558.473633,1085.207153 
M488.011169,1018.130371 
	C489.557556,1021.157166 491.103912,1024.183960 492.650299,1027.210815 
	C494.957275,1018.418884 488.101501,1010.638550 481.270996,1013.472778 
	C476.679474,1015.377930 472.447968,1019.271912 469.321838,1023.267090 
	C466.289490,1027.142456 469.106018,1032.804932 474.000153,1036.983765 
	C478.226135,1040.592041 480.827148,1037.983643 483.698395,1035.350342 
	C484.752289,1034.383789 485.812256,1033.423828 486.832886,1032.494141 
	C482.198395,1025.797119 482.198395,1025.797119 478.990845,1026.954346 
	C480.060364,1028.583252 481.098450,1030.164307 482.603882,1032.457153 
	C480.336548,1033.350220 477.980103,1035.136353 476.800568,1034.551025 
	C474.808350,1033.562256 472.212738,1031.001709 472.305145,1029.229126 
	C472.457703,1026.302002 473.955109,1022.934082 475.963318,1020.736816 
	C478.838959,1017.590698 482.562866,1014.858032 488.011169,1018.130371 
M760.020691,1177.538818 
	C761.410767,1179.528931 761.728699,1183.156982 765.898926,1181.398804 
	C764.111877,1177.969727 762.436401,1174.754639 760.612549,1171.254883 
	C765.643066,1168.884521 767.705811,1164.661621 765.396057,1160.174683 
	C762.179199,1153.925659 755.560486,1156.578247 749.934082,1155.391724 
	C749.298035,1163.449097 748.656738,1170.885864 748.200317,1178.333862 
	C748.150391,1179.148560 749.164246,1180.028442 749.684692,1180.878174 
	C750.363953,1180.144165 751.490906,1179.489502 751.637939,1178.661011 
	C752.067932,1176.239136 752.107056,1173.747803 752.292114,1171.377319 
	C757.777954,1169.509277 757.790710,1174.396362 760.020691,1177.538818 
M866.895752,1156.793335 
	C863.098328,1149.805542 858.036194,1148.619629 847.681335,1152.606079 
	C849.197815,1160.567017 850.732361,1168.623169 852.294861,1176.825928 
	C854.770325,1176.430786 856.740234,1176.208008 858.668640,1175.792480 
	C866.870605,1174.024414 869.244080,1170.680908 868.166626,1162.385498 
	C867.954285,1160.750854 867.465637,1159.152100 866.895752,1156.793335 
M995.498657,1104.028320 
	C998.541321,1108.525513 1001.584045,1113.022705 1004.895813,1117.917603 
	C1009.790100,1113.796997 1016.810608,1112.083862 1016.005432,1104.491943 
	C1015.362366,1098.427612 1012.005005,1093.250000 1006.233215,1090.963501 
	C999.743774,1088.392822 995.704224,1093.785400 990.616760,1096.718018 
	C992.335754,1099.308838 993.707092,1101.375610 995.498657,1104.028320 
M696.969910,1172.599365 
	C705.824585,1176.429077 710.919556,1174.021484 713.276306,1164.652100 
	C713.915100,1162.112671 714.682983,1159.136963 713.933838,1156.836060 
	C713.004517,1153.982178 711.068542,1150.346680 708.638184,1149.376343 
	C705.711670,1148.208130 701.123169,1148.341431 698.465088,1149.933228 
	C692.100220,1153.745239 691.308838,1166.497559 696.969910,1172.599365 
M408.059326,849.473633 
	C409.281647,848.143555 410.686401,846.923401 411.600128,845.407349 
	C411.833282,845.020508 410.626312,843.033508 409.884460,842.903564 
	C401.673126,841.464783 393.423065,840.247131 385.183502,838.969727 
	C384.981354,839.492798 384.779205,840.015869 384.577057,840.538940 
	C385.726959,841.299316 386.863342,842.677917 388.029388,842.703369 
	C391.432007,842.777893 392.631500,844.433838 392.956390,847.557739 
	C393.290253,850.767456 394.809937,854.090149 390.125549,855.664795 
	C389.128784,855.999817 388.646912,857.866638 387.927795,859.027710 
	C388.349274,859.330383 388.770752,859.633118 389.192230,859.935791 
	C395.273651,856.580505 401.355103,853.225220 408.059326,849.473633 
M523.357117,1067.992432 
	C524.704102,1064.966064 526.196289,1061.991821 527.310791,1058.882202 
	C527.651489,1057.931519 527.317993,1056.242432 526.630127,1055.560547 
	C525.949951,1054.886108 524.155823,1054.516724 523.324768,1054.941650 
	C516.142883,1058.613281 509.068207,1062.494507 501.961578,1066.313354 
	C502.043427,1066.855347 502.125305,1067.397217 502.207153,1067.939087 
	C503.605713,1067.873047 505.258759,1068.260620 506.350739,1067.647949 
	C508.750366,1066.302002 510.605377,1065.548828 512.763550,1068.150635 
	C514.864136,1070.683228 518.709229,1072.244141 515.870972,1076.682617 
	C515.265503,1077.629639 515.949585,1079.401245 516.039612,1080.793091 
	C516.561157,1080.807617 517.082703,1080.822144 517.604248,1080.836670 
	C519.427429,1076.790161 521.250610,1072.743652 523.357117,1067.992432 
M443.195984,994.320251 
	C446.012909,995.062683 446.629425,994.098389 445.219269,991.659607 
	C443.663513,988.969116 442.060211,986.306152 440.339935,983.398438 
	C442.911682,981.815063 445.129974,980.449219 447.540771,978.964905 
	C448.855713,981.087158 449.834534,983.039124 451.179749,984.693054 
	C451.939453,985.627136 453.302002,986.070862 454.392975,986.735535 
	C454.239532,985.572449 454.345001,984.290833 453.878052,983.271362 
	C452.945129,981.234497 451.698456,979.341248 450.439453,977.140686 
	C452.677612,975.815613 454.468811,974.755127 456.475311,973.567200 
	C458.399750,976.636108 459.991028,979.349976 461.793701,981.915283 
	C462.207123,982.503601 463.347809,982.580872 464.153809,982.893372 
	C464.232574,982.043884 464.676758,980.985962 464.330444,980.378967 
	C462.144562,976.547424 459.783264,972.815857 457.348022,968.835754 
	C449.822662,973.443909 442.809235,977.738464 435.683441,982.101929 
	C438.297028,986.354065 440.557312,990.031494 443.195984,994.320251 
M1122.838989,1001.246521 
	C1122.811890,1000.643188 1122.927856,999.562500 1122.737061,999.505432 
	C1114.979248,997.181152 1107.260132,994.652832 1099.371460,992.885254 
	C1096.997559,992.353333 1095.003296,994.785339 1096.858154,997.451599 
	C1101.475952,1004.089355 1106.372559,1010.533142 1111.157227,1017.054749 
	C1111.707886,1016.843506 1112.258545,1016.632324 1112.809326,1016.421082 
	C1112.387207,1014.934998 1111.945923,1013.454041 1111.548584,1011.961365 
	C1111.163452,1010.513794 1110.055420,1008.598633 1110.599854,1007.679993 
	C1112.738525,1004.071289 1114.442017,999.053589 1120.501099,1002.094116 
	C1120.956299,1002.322510 1121.732178,1001.911926 1122.838989,1001.246521 
M1040.915161,1069.989136 
	C1039.724609,1068.619019 1038.534180,1067.249023 1037.193848,1065.706421 
	C1040.173462,1062.869019 1042.974976,1060.201294 1045.947144,1057.370972 
	C1042.531982,1055.996948 1038.627686,1058.689819 1032.690308,1066.012939 
	C1038.128784,1072.118286 1043.604858,1078.265991 1049.046631,1084.375000 
	C1059.212280,1076.618286 1060.280884,1075.294189 1058.692017,1072.189697 
	C1055.667725,1074.696289 1052.685791,1077.167847 1049.569824,1079.750488 
	C1047.535156,1077.425659 1045.842041,1075.491211 1044.051514,1073.445312 
	C1046.263794,1071.455688 1048.191162,1069.866333 1049.918701,1068.083618 
	C1050.459961,1067.525024 1050.463501,1066.445435 1050.713135,1065.604248 
	C1049.736694,1065.681885 1048.554077,1065.434326 1047.822388,1065.898071 
	C1045.624023,1067.291138 1043.601562,1068.961548 1040.915161,1069.989136 
M1135.472168,946.834961 
	C1127.755005,943.160645 1124.548584,945.300903 1120.099243,957.409058 
	C1126.761963,960.853760 1133.455444,964.374573 1140.232788,967.725891 
	C1140.917969,968.064758 1142.109253,967.379883 1143.065674,967.170105 
	C1142.570068,966.314209 1142.269165,965.192627 1141.538696,964.657471 
	C1139.991821,963.524353 1138.220825,962.697205 1136.528931,961.737244 
	C1138.574707,956.537659 1142.333374,951.645508 1135.472168,946.834961 
M1160.424072,919.001160 
	C1161.948975,918.849731 1163.473755,918.698303 1164.998657,918.546753 
	C1163.854126,917.613098 1162.779663,916.569580 1161.543457,915.779175 
	C1160.471802,915.093933 1159.216919,914.695435 1158.106201,914.198547 
	C1160.135498,902.740723 1158.733276,899.523804 1151.403198,898.434387 
	C1146.012451,897.633240 1142.541992,902.120544 1141.111938,912.042236 
	C1147.246094,914.269287 1153.457397,916.524292 1160.424072,919.001160 
M427.526764,941.883301 
	C432.245880,941.294434 436.964966,940.705627 441.684052,940.116760 
	C441.681702,939.344543 441.679321,938.572266 441.676971,937.800049 
	C434.602661,936.260681 427.279358,939.601929 419.005402,938.826538 
	C424.236206,934.256042 428.660858,930.544800 432.868134,926.601746 
	C433.882019,925.651489 434.176117,923.933289 434.801270,922.568298 
	C434.308899,922.295288 433.816528,922.022339 433.324158,921.749329 
	C427.450562,926.885132 421.518707,931.957397 415.770172,937.229553 
	C414.965363,937.967773 414.482513,939.942871 414.898468,940.880615 
	C415.326263,941.845093 417.034332,942.772949 418.187317,942.779236 
	C420.997650,942.794678 423.810944,942.267639 427.526764,941.883301 
M961.864624,1128.776489 
	C962.909973,1131.460327 964.121338,1134.097412 964.899414,1136.856689 
	C965.133545,1137.687256 964.162231,1138.857788 963.743042,1139.872559 
	C965.055664,1139.640503 966.501221,1139.678955 967.650635,1139.114502 
	C969.510376,1138.200928 971.175537,1136.891357 972.922852,1135.748901 
	C971.535645,1135.249756 969.465271,1135.160156 968.878113,1134.181152 
	C966.161926,1129.651978 963.625183,1124.974976 961.551331,1120.125610 
	C960.947327,1118.713013 962.086548,1116.555176 962.711243,1113.219360 
	C958.855713,1115.184448 955.800720,1116.741577 953.548096,1117.889648 
	C956.156921,1120.946655 958.300232,1123.401978 960.367188,1125.919922 
	C960.880798,1126.545654 961.147339,1127.374268 961.864624,1128.776489 
M814.666382,1181.299805 
	C815.375793,1180.639893 816.085205,1179.979858 816.794495,1179.320068 
	C816.004272,1178.927246 815.214905,1178.203247 814.423584,1178.201050 
	C811.514221,1178.192871 808.604248,1178.424316 805.443909,1178.577759 
	C804.917358,1171.004639 804.427551,1163.959961 803.934204,1156.863770 
	C800.317810,1157.671753 799.886047,1167.829712 802.529358,1181.815552 
	C803.110596,1181.871216 803.752502,1182.014282 804.384583,1181.979248 
	C807.525635,1181.805298 810.664001,1181.584106 814.666382,1181.299805 
z"/>
<path fill="#EFF4D5" opacity="1.000000" stroke="none" 
	d="
M688.477051,531.480103 
	C718.465454,499.501129 754.849060,485.355743 798.288940,489.720673 
	C852.811707,495.199219 899.333862,536.566956 910.697144,592.742004 
	C925.146057,664.170776 874.977356,734.943604 802.707947,744.935730 
	C730.350586,754.939941 665.142395,705.284973 656.327271,632.821472 
	C651.671082,594.545227 662.857361,560.782166 688.477051,531.480103 
M793.892883,607.890686 
	C793.892883,607.890686 794.226379,608.261414 793.888245,608.838989 
	C770.341003,626.890991 751.764465,648.950256 739.635559,676.195435 
	C736.943298,682.242981 738.297668,687.179199 743.161621,689.384521 
	C748.252441,691.692810 752.315491,689.494629 755.390564,683.454895 
	C759.080688,676.207153 763.241394,669.200439 767.064148,662.017944 
	C768.682739,658.976929 770.547791,658.599548 773.909424,659.520508 
	C797.532776,665.992310 813.486572,658.691467 822.664307,636.333252 
	C833.119080,610.864258 834.381775,583.885010 833.546021,556.779480 
	C833.482422,554.714844 831.153442,551.853333 829.166260,550.979370 
	C827.471313,550.233948 824.380188,551.266174 822.567627,552.490540 
	C819.285950,554.707458 816.592224,557.771851 813.485474,560.274536 
	C799.446167,571.584351 782.615601,577.835327 766.868774,586.078613 
	C759.418762,589.978699 751.908569,594.368652 745.743469,599.983582 
	C735.140320,609.640503 734.057861,625.662415 742.310730,636.541016 
	C757.703003,623.914551 774.533203,613.740051 793.892883,607.890686 
z"/>
<path fill="#EFF4D5" opacity="1.000000" stroke="none" 
	d="
M992.000854,592.000000 
	C992.000671,636.488708 992.028870,680.477417 991.980530,724.466064 
	C991.968506,735.426453 983.827026,744.782043 973.508606,746.016113 
	C961.562012,747.444885 950.492676,740.705261 948.588379,729.547607 
	C947.585388,723.670898 948.613464,717.301575 949.512390,711.272095 
	C953.144470,686.909668 957.087463,662.593689 960.897217,638.257629 
	C961.127747,636.784607 961.198181,635.286499 961.422852,632.982361 
	C958.692322,632.982361 956.128967,633.051208 953.570312,632.970154 
	C943.876892,632.663208 935.808472,625.683716 936.024841,616.093933 
	C936.561768,592.298096 936.466187,568.348511 939.299377,544.782227 
	C942.267029,520.097046 957.016479,502.209137 979.152283,490.753113 
	C986.816772,486.786499 991.988586,489.996887 991.993652,498.523804 
	C992.011902,529.515869 992.000854,560.507935 992.000854,592.000000 
z"/>
<path fill="#EFF3D5" opacity="1.000000" stroke="none" 
	d="
M630.099121,555.563354 
	C630.119507,536.271118 630.103821,517.438477 630.137939,498.605988 
	C630.148438,492.778748 632.456360,489.527222 636.751099,489.014374 
	C642.523010,488.325134 645.999817,491.522064 646.027710,497.880463 
	C646.099976,514.379517 646.053955,530.879089 646.054932,547.378418 
	C646.055237,552.211548 645.698425,557.076233 646.122620,561.871826 
	C647.338623,575.617737 638.767273,585.035156 624.287476,585.242554 
	C624.287476,589.657776 624.069336,594.092834 624.321411,598.501099 
	C626.690125,639.921570 629.185486,681.334778 631.537109,722.756165 
	C632.250183,735.315918 622.659058,745.911743 610.695496,746.164062 
	C596.755249,746.458069 586.539001,737.145081 587.065002,723.562195 
	C587.832153,703.754700 589.325012,683.975220 590.520386,664.184509 
	C592.017212,639.403992 593.530518,614.624512 595.018494,589.843506 
	C595.105591,588.392761 595.029724,586.932129 595.029724,585.648499 
	C591.455261,584.914124 588.096375,584.643188 585.054321,583.516785 
	C577.323792,580.654297 573.018188,574.111877 573.006897,565.755798 
	C572.976501,543.256714 572.988098,520.757629 573.001343,498.258514 
	C573.005127,491.889404 575.450745,489.007141 580.760071,488.998749 
	C585.943604,488.990570 588.749512,492.004883 588.782410,498.244995 
	C588.879028,516.577087 588.806519,534.910034 588.829895,553.242615 
	C588.837830,559.497070 589.665710,560.072021 595.669250,560.225342 
	C600.543396,560.349792 601.593933,557.733826 601.584167,553.648193 
	C601.540039,535.149048 601.536743,516.649597 601.593384,498.150513 
	C601.611145,492.338074 604.016479,489.332062 608.565613,489.006195 
	C613.988586,488.617676 617.176392,491.480225 617.265198,497.409546 
	C617.429993,508.406647 617.330017,519.407715 617.337402,530.407166 
	C617.342773,538.406860 617.312988,546.406677 617.363037,554.406067 
	C617.380676,557.216187 617.827515,560.066895 621.472229,560.053589 
	C624.846680,560.041321 629.261047,561.696960 630.099121,555.563354 
z"/>
<path fill="#EDF2D3" opacity="1.000000" stroke="none" 
	d="
M724.945923,1027.675537 
	C724.919434,1018.270020 724.919434,1009.319824 724.919434,999.852295 
	C718.226379,999.852295 712.944214,999.625488 707.712158,1000.036377 
	C706.615601,1000.122498 704.948914,1002.491150 704.824768,1003.919312 
	C703.743164,1016.353760 703.009277,1028.817993 702.028931,1041.262085 
	C701.835205,1043.720947 701.077332,1046.143677 700.490540,1048.561401 
	C699.396423,1053.068848 696.970215,1055.562134 691.886108,1054.519287 
	C689.548645,1054.039795 685.942322,1054.989624 684.990906,1053.725830 
	C683.827820,1052.180664 684.911804,1048.992554 684.913086,1046.514893 
	C684.927185,1018.869141 684.949402,991.223389 684.895020,963.577759 
	C684.883057,957.505188 686.281738,955.426819 691.274719,954.961609 
	C698.873108,954.253540 701.513367,955.868347 702.371216,962.078003 
	C703.145386,967.681702 703.779663,973.309204 704.296631,978.942627 
	C704.795593,984.380249 705.065796,989.838928 705.530640,996.672607 
	C710.712830,995.592957 715.833618,995.148865 720.384460,993.301086 
	C722.490356,992.446045 724.454468,988.984924 724.793457,986.476990 
	C725.660034,980.065491 725.535156,973.523499 725.889893,967.038208 
	C726.165161,962.004150 728.820679,959.287354 733.494690,958.846008 
	C738.410034,958.381958 740.126404,961.189148 741.182434,965.439819 
	C744.534729,978.932922 743.932434,992.531250 742.685791,1006.163330 
	C742.231201,1011.134338 741.627808,1016.094360 740.978210,1021.044373 
	C739.740112,1030.477051 736.385376,1033.517090 726.081116,1034.369507 
	C725.716553,1032.318359 725.344482,1030.224609 724.945923,1027.675537 
z"/>
<path fill="#EDF2D3" opacity="1.000000" stroke="none" 
	d="
M578.082520,881.573975 
	C577.433472,870.826599 579.838318,861.248535 585.457458,852.628479 
	C591.895203,842.752686 601.996948,838.449707 612.828369,840.561829 
	C617.527954,834.593994 624.222839,835.130798 626.979675,842.623474 
	C630.047546,850.961670 632.714539,859.790588 633.405762,868.575134 
	C634.315918,880.140442 633.350403,891.881470 632.783691,903.527100 
	C632.201233,915.498718 625.262756,920.665283 613.681274,917.717773 
	C612.057068,917.304382 610.314819,914.298340 610.036072,912.296204 
	C609.469788,908.229919 609.866821,904.029480 609.866821,899.851807 
	C609.674011,899.817810 609.272766,899.609070 609.070496,899.730896 
	C596.565552,907.258179 583.697815,901.549194 579.125610,886.400269 
	C578.693787,884.969543 578.452576,883.481323 578.082520,881.573975 
M609.183289,884.432739 
	C610.742004,871.297668 612.351379,858.167786 613.717896,845.012756 
	C613.790222,844.316772 611.704041,842.612915 610.801453,842.732117 
	C606.409973,843.312012 601.926697,844.722107 600.285950,849.222717 
	C596.483215,859.653381 595.073792,870.559631 596.396606,881.595154 
	C596.736877,884.433777 599.057251,887.035156 600.467957,889.745544 
	C603.242554,888.192017 606.017151,886.638550 609.183289,884.432739 
z"/>
<path fill="#EDF2D3" opacity="1.000000" stroke="none" 
	d="
M893.294312,863.742493 
	C892.984375,878.652100 893.139404,893.160522 892.048767,907.574707 
	C891.377502,916.444946 880.678040,921.516541 872.647217,917.455627 
	C871.204773,916.726257 870.171143,914.064758 869.990234,912.194580 
	C869.594604,908.104370 869.867798,903.949463 869.867798,899.807434 
	C869.585205,899.793274 869.188293,899.644409 868.968567,899.780823 
	C856.769592,907.355591 844.057251,901.806641 839.215881,886.775574 
	C835.038269,873.805481 841.153320,853.830994 852.015869,845.525146 
	C858.228455,840.774902 865.095581,838.236023 872.942383,840.691040 
	C877.160950,834.599060 883.845886,835.130066 886.901794,842.365051 
	C889.722778,849.043884 891.177124,856.299805 893.294312,863.742493 
M866.157104,887.727905 
	C867.647827,885.580139 870.167175,883.561768 870.456360,881.262939 
	C871.928467,869.558167 872.911194,857.787231 873.771362,846.018005 
	C873.848938,844.955994 871.889038,842.824829 870.778442,842.756042 
	C866.078735,842.465149 860.961365,846.468750 859.555908,851.077026 
	C858.732910,853.775208 857.603027,856.515381 857.495605,859.271057 
	C857.161987,867.832458 856.579224,876.476746 857.418213,884.957825 
	C857.954651,890.380798 860.317505,890.769836 866.157104,887.727905 
z"/>
<path fill="#ECF2D3" opacity="1.000000" stroke="none" 
	d="
M768.971924,872.006714 
	C769.415161,858.200745 769.972534,844.895264 770.234802,831.583984 
	C770.327393,826.883728 772.099976,824.770874 776.914673,824.395264 
	C780.401306,824.123230 783.893555,822.945374 787.212097,821.711182 
	C793.006409,819.556152 797.634705,821.518188 800.318848,827.078430 
	C803.489746,833.646667 804.265869,840.033569 799.786682,846.971741 
	C806.428406,846.616272 810.565308,849.587158 813.736633,854.582520 
	C821.085693,866.158203 825.000732,878.325562 819.636414,891.712036 
	C818.416016,894.757324 815.498474,897.612854 812.643433,899.420593 
	C804.058350,904.856628 795.240112,909.713867 784.233521,907.704468 
	C781.473145,907.200500 778.278748,909.073975 775.844971,909.708557 
	C768.249756,904.348694 768.303589,896.793640 768.755920,888.986267 
	C769.073364,883.506714 768.915466,877.999634 768.971924,872.006714 
M802.002075,868.743530 
	C799.769592,865.531860 798.045776,861.728821 795.174927,859.259216 
	C791.650208,856.227112 786.870422,858.860046 786.655273,863.290894 
	C786.016541,876.442139 785.318176,889.590393 784.650452,902.595825 
	C796.388672,901.493530 806.483826,883.575134 802.002075,868.743530 
M793.215820,825.155334 
	C788.240967,823.369873 785.965820,824.946594 786.159058,830.005493 
	C786.241699,832.168396 786.258911,834.334534 786.263855,836.499329 
	C786.277405,842.380920 786.268494,848.262573 786.268494,854.816223 
	C788.198059,853.174805 789.867859,852.235474 790.870422,850.822632 
	C796.867004,842.371765 800.927979,832.896118 793.215820,825.155334 
z"/>
<path fill="#EDF2D3" opacity="1.000000" stroke="none" 
	d="
M862.552124,1000.503540 
	C872.553711,1014.836121 868.706543,1034.578979 854.316650,1043.679321 
	C852.244995,1044.989502 849.754883,1046.572021 847.507629,1046.499878 
	C840.101318,1046.261475 833.183777,1048.094238 826.251343,1050.202881 
	C821.345093,1051.695435 818.818542,1048.798462 817.911560,1044.747314 
	C816.828918,1039.911743 815.995422,1034.874634 816.094238,1029.945557 
	C816.520630,1008.670227 817.343445,987.403015 817.982849,966.131653 
	C818.112854,961.808350 817.803284,957.450867 818.265869,953.170654 
	C818.417786,951.765259 820.283447,949.531738 821.512146,949.428772 
	C827.276367,948.945923 833.209412,954.027527 833.972778,960.024719 
	C835.309814,970.528992 836.343323,981.071838 837.572083,992.215942 
	C846.694336,991.587524 855.544128,992.903503 862.552124,1000.503540 
M856.965759,1020.341736 
	C856.643494,1015.923340 856.835022,1011.391479 855.889587,1007.110718 
	C854.048462,998.774719 849.288635,996.013245 840.812195,997.311218 
	C837.968994,997.746582 837.042419,998.733093 837.309753,1001.869995 
	C838.085388,1010.969849 838.391663,1020.111267 838.795715,1029.240234 
	C838.934448,1032.374146 838.817749,1035.519165 838.817749,1038.696777 
	C844.011719,1038.961060 847.981812,1037.224121 850.470093,1033.415649 
	C852.978882,1029.575684 854.739441,1025.246826 856.965759,1020.341736 
z"/>
<path fill="#ECF2D3" opacity="1.000000" stroke="none" 
	d="
M651.345337,904.582520 
	C646.693359,902.679443 644.581238,899.751404 644.719360,894.830017 
	C645.260681,875.540894 645.561523,856.245117 645.954224,836.951782 
	C646.024780,833.484680 647.744202,831.993774 651.265930,831.819763 
	C656.809631,831.546021 661.513977,832.569519 664.418030,837.895996 
	C665.770996,840.377502 667.233582,840.354797 669.520264,838.456238 
	C679.388733,830.263062 691.047974,833.708618 693.250122,846.149475 
	C695.414551,858.377014 695.945007,870.900818 697.031433,883.308655 
	C697.465881,888.269348 697.286316,893.283691 697.720032,898.244446 
	C698.162109,903.299622 695.943542,907.025024 692.218872,909.856140 
	C689.476318,911.940796 687.163025,911.445923 686.765564,907.445984 
	C686.568359,905.462097 686.264465,903.475769 686.251099,901.488892 
	C686.134888,884.189575 686.082947,866.889832 685.980957,849.590393 
	C685.971130,847.930420 685.857483,846.255432 685.609497,844.614990 
	C684.607971,837.990906 681.863098,836.100891 675.386963,837.476868 
	C670.928711,838.424133 667.695679,843.957764 668.861389,848.496887 
	C671.858093,860.165161 671.472229,871.839355 669.432434,883.648926 
	C668.144836,891.103882 667.302490,898.398132 660.927795,903.730103 
	C657.821960,906.327942 655.090210,907.411316 651.345337,904.582520 
z"/>
<path fill="#EDF2D3" opacity="1.000000" stroke="none" 
	d="
M755.816589,909.258240 
	C755.909668,910.066467 756.343872,911.041382 756.043152,911.657227 
	C753.029724,917.827271 746.007507,920.911377 739.281494,919.143616 
	C727.047119,915.928040 719.064514,907.217163 718.103882,894.325134 
	C717.102722,880.888306 716.931396,867.375916 716.835693,853.893433 
	C716.805786,849.669067 715.808350,848.293884 711.514038,848.786499 
	C707.469482,849.250488 703.329834,848.886047 699.232056,848.886047 
	C699.140503,848.419983 699.048950,847.953979 698.957397,847.487915 
	C702.956604,846.647095 706.938049,845.231628 710.959351,845.107849 
	C716.220093,844.945801 717.724182,842.568665 717.913147,837.725952 
	C718.165833,831.249817 718.952759,824.780701 719.826355,818.351501 
	C720.071045,816.550720 721.726685,813.343506 722.224976,813.439148 
	C725.096191,813.990234 728.310791,814.767151 730.424072,816.602051 
	C732.054810,818.017822 732.580688,821.041443 732.995361,823.453857 
	C733.896851,828.698608 734.645325,833.993591 735.007996,839.298767 
	C735.262329,843.019165 736.497742,844.599548 740.455627,844.436401 
	C744.888184,844.253723 749.349976,844.781799 753.799072,845.000610 
	C753.850464,845.541321 753.901917,846.082092 753.953308,846.622864 
	C749.905273,847.081909 745.863770,847.827637 741.807251,847.920898 
	C737.602356,848.017517 735.976257,849.521362 736.034119,853.912598 
	C736.225037,868.409302 735.928162,882.912109 736.081177,897.409790 
	C736.128357,901.877014 736.842957,906.365906 737.619812,910.780151 
	C737.869812,912.200684 739.054993,913.876221 740.290710,914.527588 
	C740.913147,914.855652 742.854675,913.373352 743.774414,912.333557 
	C749.950989,905.351196 754.294556,897.397278 756.116821,888.168579 
	C756.301147,887.235046 756.651062,886.334229 757.349304,883.991882 
	C759.687012,893.734314 756.493774,901.475403 755.490784,909.352478 
	C755.836914,909.329346 755.816589,909.258240 755.816589,909.258240 
z"/>
<path fill="#EDF2D3" opacity="1.000000" stroke="none" 
	d="
M757.103821,1032.717285 
	C752.702637,1020.015320 753.646484,1007.448547 755.396606,994.847656 
	C755.579529,993.530762 755.999268,992.189514 755.880066,990.899292 
	C755.608826,987.962830 755.804565,985.393616 759.448059,985.016541 
	C763.161255,984.632263 765.082825,986.927795 765.663452,990.172302 
	C766.952454,997.374878 768.113403,1004.607605 769.050781,1011.863647 
	C769.903015,1018.460510 770.283447,1025.117676 771.106018,1031.719238 
	C771.344788,1033.635254 771.900635,1035.969849 773.187622,1037.182373 
	C774.833618,1038.733398 777.503113,1040.344971 779.479675,1040.076416 
	C781.463440,1039.807007 783.596252,1037.545654 784.801636,1035.618164 
	C785.754333,1034.094727 785.501709,1031.760132 785.610840,1029.776123 
	C786.333191,1016.641541 786.902710,1003.497131 787.808350,990.375671 
	C787.951660,988.299011 789.203003,984.890320 790.529724,984.575623 
	C794.090210,983.731323 797.629639,985.286926 799.001160,989.046631 
	C800.402954,992.888916 801.709839,996.924072 802.062927,1000.961853 
	C803.294983,1015.051636 804.213562,1029.172852 804.982971,1043.296631 
	C805.188721,1047.073120 805.293579,1051.261963 803.885864,1054.604980 
	C802.487793,1057.925171 799.568359,1062.064819 796.520996,1062.882568 
	C792.118530,1064.064209 788.379089,1060.354004 786.827881,1055.988892 
	C785.570251,1052.449829 785.236938,1048.582397 784.489502,1044.839722 
	C772.770691,1047.223145 764.261536,1041.876343 757.103821,1032.717285 
z"/>
<path fill="#ECF2D3" opacity="1.000000" stroke="none" 
	d="
M513.318787,886.961914 
	C512.889404,890.854187 512.543335,894.334229 512.078613,897.798279 
	C511.155731,904.677734 504.954315,910.728638 498.258972,910.694458 
	C497.173126,910.688843 495.230743,907.966797 495.160614,906.432800 
	C494.590912,893.967041 494.621826,881.472595 493.985138,869.011536 
	C493.179413,853.243835 492.016754,837.491760 490.790497,821.749817 
	C490.436401,817.204102 492.168335,815.192078 496.915588,815.420654 
	C498.354248,815.489929 500.118622,815.165222 501.244354,814.347290 
	C509.556030,808.308533 520.527954,808.702148 527.667358,815.999817 
	C535.499084,824.005249 537.939331,834.383850 535.454895,844.671753 
	C533.217712,853.935669 524.875549,858.712158 516.009521,861.702759 
	C515.230103,861.965698 514.387085,862.040222 513.348450,862.247131 
	C513.348450,870.360657 513.348450,878.451538 513.318787,886.961914 
M529.297791,831.038330 
	C528.324036,823.879761 524.955200,818.168701 518.757874,814.386658 
	C514.651184,811.880432 509.656342,812.796387 505.779755,815.840698 
	C501.682739,819.058044 503.418457,822.216980 504.886505,825.949890 
	C506.755402,830.702026 508.171967,835.689453 509.214417,840.693970 
	C510.375122,846.266418 510.896332,851.971985 511.773712,858.169006 
	C522.148132,851.968567 530.104126,844.833984 529.297791,831.038330 
z"/>
<path fill="#EDF2D3" opacity="1.000000" stroke="none" 
	d="
M1058.801392,913.754089 
	C1057.103882,916.447815 1055.810303,919.036255 1053.911865,921.056274 
	C1052.824829,922.212891 1050.508057,923.250244 1049.202148,922.849854 
	C1048.074829,922.504211 1047.169067,920.119690 1046.904907,918.514832 
	C1046.022217,913.151428 1045.471313,907.733337 1044.934448,903.460144 
	C1039.833130,901.259827 1034.874634,900.072327 1031.079834,897.294617 
	C1022.002075,890.649780 1021.750977,878.301636 1030.347534,871.093811 
	C1033.717163,868.268616 1037.744995,865.881531 1041.870605,864.407959 
	C1045.587280,863.080322 1046.697144,861.108582 1046.813965,857.536560 
	C1047.090942,849.060974 1047.588379,840.591919 1048.051758,832.123291 
	C1048.327881,827.076233 1051.943481,823.690552 1056.741089,823.930359 
	C1059.976074,824.092102 1062.220337,825.549927 1062.310791,829.036804 
	C1062.897461,851.628784 1063.771729,874.222961 1063.724609,896.814758 
	C1063.713135,902.349976 1060.625244,907.878845 1058.801392,913.754089 
M1045.436157,887.498840 
	C1045.436157,880.810974 1045.436157,874.123169 1045.436157,867.403076 
	C1035.640137,869.432190 1032.446289,872.945740 1032.899292,882.152344 
	C1033.031006,884.831177 1034.250610,889.044739 1036.006958,889.676453 
	C1038.528442,890.583435 1041.998657,888.852173 1045.436157,887.498840 
z"/>
<path fill="#ECF2D3" opacity="1.000000" stroke="none" 
	d="
M992.000854,902.190063 
	C981.722717,907.325867 971.373718,905.036377 964.791870,895.789429 
	C957.416016,885.427063 955.128601,873.798584 959.548035,861.720337 
	C961.859985,855.401672 965.342163,849.380310 969.078003,843.743042 
	C975.310181,834.338684 981.189941,832.773254 991.691956,837.086121 
	C994.235718,838.130737 996.642761,839.861511 998.664673,841.755188 
	C1003.988831,846.741150 1003.919739,852.731689 998.658691,857.855835 
	C993.690857,862.694397 987.566650,865.187378 980.750061,865.738647 
	C976.823608,866.056213 975.831238,868.050293 976.689087,871.389832 
	C977.303101,873.780090 977.860474,876.362549 979.190430,878.362244 
	C987.470215,890.811218 993.616028,890.336121 1002.854492,881.878784 
	C1005.828064,879.156677 1008.445496,876.045471 1011.936523,873.690491 
	C1007.455261,884.598572 1001.030029,894.079163 992.000854,902.190063 
M993.756775,853.674133 
	C994.659973,847.572266 993.231995,843.518127 988.905029,842.014404 
	C987.412537,841.495728 984.104248,842.299072 983.639648,843.371338 
	C980.995056,849.474854 978.959534,855.842285 976.468628,862.815247 
	C984.206848,862.383484 989.873047,860.506042 993.756775,853.674133 
z"/>
<path fill="#EDF2D3" opacity="1.000000" stroke="none" 
	d="
M546.427124,885.588989 
	C545.469055,865.045105 544.528870,844.938049 543.786499,824.823547 
	C543.594604,819.625061 545.383728,818.674744 550.224915,820.852966 
	C555.995605,823.449341 558.610046,828.692993 559.600586,834.259094 
	C561.490967,844.881165 563.195190,855.626953 563.695801,866.380920 
	C564.221008,877.663513 563.273621,889.017090 562.897400,900.337219 
	C562.825806,902.491577 563.108215,905.126953 562.008301,906.673218 
	C560.133057,909.309387 557.291809,911.258240 554.856323,913.495850 
	C553.248169,911.230896 550.801147,909.169250 550.193359,906.661926 
	C548.550537,899.883545 547.689819,892.915710 546.427124,885.588989 
z"/>
<path fill="#ECF2D3" opacity="1.000000" stroke="none" 
	d="
M922.265503,900.903870 
	C912.413269,898.072815 907.458435,891.068115 904.619568,882.044312 
	C905.815796,883.344666 906.878174,884.808350 908.231323,885.917297 
	C914.256042,890.854919 917.896851,890.354065 922.542664,884.102478 
	C926.186462,879.199036 925.554138,875.734619 920.156738,872.727173 
	C914.183777,869.399048 909.225525,865.102539 906.342896,858.819092 
	C903.794861,853.264832 904.805908,847.787720 908.728027,844.093140 
	C912.513550,840.527039 921.185120,839.340942 926.098206,841.717041 
	C931.048096,844.110962 933.823547,849.130676 933.291443,854.835388 
	C933.252747,855.249634 932.812378,855.626465 932.199646,856.578796 
	C930.403564,853.409912 928.885498,850.534424 927.179932,847.774841 
	C925.255798,844.661560 923.269653,844.691528 921.142761,847.760132 
	C916.854431,853.947144 918.442505,859.440430 925.311584,862.154297 
	C928.082764,863.249146 931.025146,864.238220 933.400146,865.953186 
	C945.696655,874.832214 947.260071,888.376038 934.962463,899.750793 
	C931.261475,903.174011 926.912109,902.035950 922.265503,900.903870 
z"/>
<path fill="#E1EBC9" opacity="1.000000" stroke="none" 
	d="
M922.697021,1149.518555 
	C922.215515,1144.897583 921.634888,1140.283569 921.312744,1135.651611 
	C921.215820,1134.256836 921.837646,1132.812012 922.130188,1131.390137 
	C922.797058,1131.431274 923.463989,1131.472412 924.130920,1131.513550 
	C924.947449,1139.513916 925.823425,1147.509521 926.480835,1155.523071 
	C926.541138,1156.258545 925.312195,1157.583618 924.486450,1157.770142 
	C923.677307,1157.953125 922.254883,1157.288330 921.732727,1156.549561 
	C919.530640,1153.433960 917.583801,1150.138916 915.502563,1146.936157 
	C914.644592,1145.615723 913.683594,1144.362305 912.018555,1143.410767 
	C912.548096,1148.490234 913.190918,1153.562256 913.520020,1158.654663 
	C913.593628,1159.793701 912.567078,1161.003906 912.046997,1162.181274 
	C910.881714,1161.640137 909.238892,1161.418701 908.628235,1160.506348 
	C904.476379,1154.302612 900.541992,1147.953247 896.537415,1141.651001 
	C896.798828,1141.191162 897.060242,1140.731323 897.321655,1140.271606 
	C898.520630,1140.946167 900.138611,1141.329590 900.845215,1142.346436 
	C903.753418,1146.530762 906.384521,1150.907471 910.029846,1154.950806 
	C909.562622,1149.961426 908.962952,1144.978394 908.718323,1139.978149 
	C908.654541,1138.675171 909.697632,1137.317993 910.232422,1135.985718 
	C911.371094,1136.687134 912.876648,1137.130615 913.583191,1138.135742 
	C916.253540,1141.935181 918.664551,1145.916748 921.511292,1150.303223 
	C922.141602,1150.949829 922.433289,1151.123169 922.724915,1151.296631 
	C922.715637,1150.703979 922.706299,1150.111206 922.697021,1149.518555 
z"/>
<path fill="#E2ECCA" opacity="1.000000" stroke="none" 
	d="
M656.839905,1145.772949 
	C658.514709,1143.250244 659.869812,1140.932495 661.543579,1138.874023 
	C662.198059,1138.069092 663.568298,1137.846191 664.612549,1137.358154 
	C664.941528,1137.760742 665.270447,1138.163208 665.599426,1138.565796 
	C661.172180,1145.100098 656.792664,1151.667969 652.245544,1158.117676 
	C651.779297,1158.779053 649.925842,1159.271729 649.395569,1158.892456 
	C648.562012,1158.296387 647.816833,1156.857178 647.889587,1155.835938 
	C648.239136,1150.930176 648.875732,1146.044800 649.410461,1141.152222 
	C649.010315,1140.971069 648.610168,1140.789917 648.210083,1140.608765 
	C645.582214,1144.496460 643.072510,1148.473267 640.248718,1152.213013 
	C639.481934,1153.228394 637.767090,1153.527954 636.487305,1154.156006 
	C636.013489,1152.927246 635.021545,1151.641357 635.150024,1150.479248 
	C635.969360,1143.069458 637.035400,1135.687134 638.036011,1128.177124 
	C641.019775,1129.536133 641.016235,1129.535767 640.148560,1136.775024 
	C639.734619,1140.227905 639.337097,1143.682617 639.714661,1147.527466 
	C642.462280,1143.492310 645.090454,1139.366943 648.029541,1135.476440 
	C648.923340,1134.293335 650.674622,1133.757935 652.033264,1132.925903 
	C652.433594,1134.324219 653.255432,1135.752808 653.158142,1137.115479 
	C652.815857,1141.906006 652.157715,1146.673950 652.549805,1151.923706 
	C653.915710,1149.976318 655.281616,1148.028931 656.839905,1145.772949 
z"/>
<path fill="#E2ECCA" opacity="1.000000" stroke="none" 
	d="
M558.683594,1084.938477 
	C562.674133,1083.700806 564.243164,1084.996948 563.798828,1088.904297 
	C563.170044,1094.433838 562.421204,1099.949585 562.791565,1105.902588 
	C564.384033,1103.660400 565.980774,1101.421265 567.567871,1099.175293 
	C569.190002,1096.879517 570.802795,1094.577148 572.419800,1092.277710 
	C572.938293,1092.330566 573.456848,1092.383301 573.975342,1092.436157 
	C573.975342,1093.583740 574.433167,1095.037720 573.902649,1095.830078 
	C569.752441,1102.029541 565.412598,1108.101929 560.140625,1115.627441 
	C559.104187,1112.767456 557.881042,1111.052368 558.005127,1109.440918 
	C558.488708,1103.158569 559.399109,1096.909058 559.195740,1090.102417 
	C556.316650,1094.209351 553.524597,1098.382080 550.502197,1102.380737 
	C549.660767,1103.493896 548.137939,1104.092285 546.927612,1104.926758 
	C547.255066,1103.403687 547.184998,1101.621582 547.979004,1100.402344 
	C551.337219,1095.246094 554.952454,1090.257324 558.683594,1084.938477 
z"/>
<path fill="#E2ECCA" opacity="1.000000" stroke="none" 
	d="
M487.698395,1017.883789 
	C482.562866,1014.858032 478.838959,1017.590698 475.963318,1020.736816 
	C473.955109,1022.934082 472.457703,1026.302002 472.305145,1029.229126 
	C472.212738,1031.001709 474.808350,1033.562256 476.800568,1034.551025 
	C477.980103,1035.136353 480.336548,1033.350220 482.603882,1032.457153 
	C481.098450,1030.164307 480.060364,1028.583252 478.990845,1026.954346 
	C482.198395,1025.797119 482.198395,1025.797119 486.832886,1032.494141 
	C485.812256,1033.423828 484.752289,1034.383789 483.698395,1035.350342 
	C480.827148,1037.983643 478.226135,1040.592041 474.000153,1036.983765 
	C469.106018,1032.804932 466.289490,1027.142456 469.321838,1023.267090 
	C472.447968,1019.271912 476.679474,1015.377930 481.270996,1013.472778 
	C488.101501,1010.638550 494.957275,1018.418884 492.650299,1027.210815 
	C491.103912,1024.183960 489.557556,1021.157166 487.698395,1017.883789 
z"/>
<path fill="#E2ECCA" opacity="1.000000" stroke="none" 
	d="
M759.857666,1177.195312 
	C757.790710,1174.396362 757.777954,1169.509277 752.292114,1171.377319 
	C752.107056,1173.747803 752.067932,1176.239136 751.637939,1178.661011 
	C751.490906,1179.489502 750.363953,1180.144165 749.684692,1180.878174 
	C749.164246,1180.028442 748.150391,1179.148560 748.200317,1178.333862 
	C748.656738,1170.885864 749.298035,1163.449097 749.934082,1155.391724 
	C755.560486,1156.578247 762.179199,1153.925659 765.396057,1160.174683 
	C767.705811,1164.661621 765.643066,1168.884521 760.612549,1171.254883 
	C762.436401,1174.754639 764.111877,1177.969727 765.898926,1181.398804 
	C761.728699,1183.156982 761.410767,1179.528931 759.857666,1177.195312 
M757.284363,1167.972168 
	C761.176025,1168.181641 763.152283,1166.003784 762.263733,1162.518188 
	C761.017334,1157.628906 756.800110,1159.265503 752.623108,1159.034668 
	C754.484619,1162.266479 749.057739,1167.367065 757.284363,1167.972168 
z"/>
<path fill="#E2ECCA" opacity="1.000000" stroke="none" 
	d="
M867.000061,1157.165039 
	C867.465637,1159.152100 867.954285,1160.750854 868.166626,1162.385498 
	C869.244080,1170.680908 866.870605,1174.024414 858.668640,1175.792480 
	C856.740234,1176.208008 854.770325,1176.430786 852.294861,1176.825928 
	C850.732361,1168.623169 849.197815,1160.567017 847.681335,1152.606079 
	C858.036194,1148.619629 863.098328,1149.805542 867.000061,1157.165039 
M854.627747,1170.682617 
	C855.626953,1171.382202 857.016846,1172.899170 857.558044,1172.640503 
	C859.968018,1171.488647 863.948364,1169.930786 864.038391,1168.332642 
	C864.275696,1164.118286 863.698364,1159.267578 861.619629,1155.749146 
	C860.489685,1153.836670 855.638489,1154.122803 851.415283,1153.183594 
	C852.599548,1159.815186 853.498779,1164.850464 854.627747,1170.682617 
z"/>
<path fill="#E3ECCB" opacity="1.000000" stroke="none" 
	d="
M995.288513,1103.735352 
	C993.707092,1101.375610 992.335754,1099.308838 990.616760,1096.718018 
	C995.704224,1093.785400 999.743774,1088.392822 1006.233215,1090.963501 
	C1012.005005,1093.250000 1015.362366,1098.427612 1016.005432,1104.491943 
	C1016.810608,1112.083862 1009.790100,1113.796997 1004.895813,1117.917603 
	C1001.584045,1113.022705 998.541321,1108.525513 995.288513,1103.735352 
M1011.480652,1101.559937 
	C1006.003723,1092.405640 1002.823486,1091.575928 995.409302,1097.753540 
	C998.858704,1102.846558 1002.331726,1107.974487 1005.832458,1113.143311 
	C1010.389709,1110.436279 1014.094177,1107.934570 1011.480652,1101.559937 
z"/>
<path fill="#E5EDCC" opacity="1.000000" stroke="none" 
	d="
M696.663818,1172.375000 
	C691.308838,1166.497559 692.100220,1153.745239 698.465088,1149.933228 
	C701.123169,1148.341431 705.711670,1148.208130 708.638184,1149.376343 
	C711.068542,1150.346680 713.004517,1153.982178 713.933838,1156.836060 
	C714.682983,1159.136963 713.915100,1162.112671 713.276306,1164.652100 
	C710.919556,1174.021484 705.824585,1176.429077 696.663818,1172.375000 
M703.660522,1151.083252 
	C698.022034,1153.247925 693.949768,1164.125244 697.727478,1168.445312 
	C699.242676,1170.177979 703.602783,1171.419067 705.448792,1170.482178 
	C710.457703,1167.939453 710.517761,1162.348633 710.666504,1157.424316 
	C710.783997,1153.536987 708.283508,1151.467041 703.660522,1151.083252 
z"/>
<path fill="#E2ECCA" opacity="1.000000" stroke="none" 
	d="
M407.747925,849.671753 
	C401.355103,853.225220 395.273651,856.580505 389.192230,859.935791 
	C388.770752,859.633118 388.349274,859.330383 387.927795,859.027710 
	C388.646912,857.866638 389.128784,855.999817 390.125549,855.664795 
	C394.809937,854.090149 393.290253,850.767456 392.956390,847.557739 
	C392.631500,844.433838 391.432007,842.777893 388.029388,842.703369 
	C386.863342,842.677917 385.726959,841.299316 384.577057,840.538940 
	C384.779205,840.015869 384.981354,839.492798 385.183502,838.969727 
	C393.423065,840.247131 401.673126,841.464783 409.884460,842.903564 
	C410.626312,843.033508 411.833282,845.020508 411.600128,845.407349 
	C410.686401,846.923401 409.281647,848.143555 407.747925,849.671753 
M395.914734,846.368042 
	C396.227661,847.934998 396.540619,849.501892 396.991699,851.760559 
	C400.588623,849.771851 403.611786,848.100342 406.634949,846.428894 
	C406.520691,845.838379 406.406433,845.247803 406.292175,844.657227 
	C402.809753,844.942322 399.327332,845.227478 395.914734,846.368042 
z"/>
<path fill="#E0EBC9" opacity="1.000000" stroke="none" 
	d="
M523.215454,1068.344727 
	C521.250610,1072.743652 519.427429,1076.790161 517.604248,1080.836670 
	C517.082703,1080.822144 516.561157,1080.807617 516.039612,1080.793091 
	C515.949585,1079.401245 515.265503,1077.629639 515.870972,1076.682617 
	C518.709229,1072.244141 514.864136,1070.683228 512.763550,1068.150635 
	C510.605377,1065.548828 508.750366,1066.302002 506.350739,1067.647949 
	C505.258759,1068.260620 503.605713,1067.873047 502.207153,1067.939087 
	C502.125305,1067.397217 502.043427,1066.855347 501.961578,1066.313354 
	C509.068207,1062.494507 516.142883,1058.613281 523.324768,1054.941650 
	C524.155823,1054.516724 525.949951,1054.886108 526.630127,1055.560547 
	C527.317993,1056.242432 527.651489,1057.931519 527.310791,1058.882202 
	C526.196289,1061.991821 524.704102,1064.966064 523.215454,1068.344727 
M522.275452,1059.044922 
	C519.319763,1060.666382 516.364136,1062.287964 512.961304,1064.154663 
	C515.269409,1066.206421 516.919617,1067.673218 519.303650,1069.792480 
	C520.695435,1065.598999 521.808655,1062.244507 523.183899,1059.112183 
	C523.281433,1059.036743 523.378906,1058.961426 523.476440,1058.885986 
	C523.405457,1058.828735 523.290344,1058.710449 523.270935,1058.724609 
	C523.164795,1058.801147 523.082275,1058.910278 522.275452,1059.044922 
z"/>
<path fill="#E2ECCA" opacity="1.000000" stroke="none" 
	d="
M443.006805,994.014587 
	C440.557312,990.031494 438.297028,986.354065 435.683441,982.101929 
	C442.809235,977.738464 449.822662,973.443909 457.348022,968.835754 
	C459.783264,972.815857 462.144562,976.547424 464.330444,980.378967 
	C464.676758,980.985962 464.232574,982.043884 464.153809,982.893311 
	C463.347809,982.580872 462.207123,982.503601 461.793701,981.915283 
	C459.991028,979.349976 458.399750,976.636108 456.475311,973.567200 
	C454.468811,974.755127 452.677612,975.815613 450.439453,977.140686 
	C451.698456,979.341248 452.945129,981.234497 453.878052,983.271362 
	C454.345001,984.290833 454.239532,985.572449 454.392975,986.735535 
	C453.302002,986.070862 451.939453,985.627136 451.179749,984.693054 
	C449.834534,983.039124 448.855713,981.087158 447.540771,978.964905 
	C445.129974,980.449219 442.911682,981.815063 440.339935,983.398438 
	C442.060211,986.306152 443.663513,988.969116 445.219269,991.659607 
	C446.629425,994.098389 446.012909,995.062683 443.006805,994.014587 
z"/>
<path fill="#E3ECCB" opacity="1.000000" stroke="none" 
	d="
M1122.598999,1001.522461 
	C1121.732178,1001.911926 1120.956299,1002.322510 1120.501099,1002.094116 
	C1114.442017,999.053589 1112.738525,1004.071289 1110.599854,1007.679993 
	C1110.055420,1008.598633 1111.163452,1010.513794 1111.548584,1011.961365 
	C1111.945923,1013.454041 1112.387207,1014.934998 1112.809326,1016.421082 
	C1112.258545,1016.632324 1111.707886,1016.843506 1111.157227,1017.054749 
	C1106.372559,1010.533142 1101.475952,1004.089355 1096.858154,997.451599 
	C1095.003296,994.785339 1096.997559,992.353333 1099.371460,992.885254 
	C1107.260132,994.652832 1114.979248,997.181152 1122.737061,999.505432 
	C1122.927856,999.562500 1122.811890,1000.643188 1122.598999,1001.522461 
M1101.932373,996.958252 
	C1103.516235,1000.058899 1105.100220,1003.159546 1107.116089,1007.106018 
	C1109.162231,1003.909485 1110.356201,1002.044434 1111.864014,999.688904 
	C1108.347412,998.659058 1105.525513,997.832642 1101.932373,996.958252 
z"/>
<path fill="#E3ECCB" opacity="1.000000" stroke="none" 
	d="
M1041.212891,1070.256348 
	C1043.601562,1068.961548 1045.624023,1067.291138 1047.822388,1065.898071 
	C1048.554077,1065.434326 1049.736694,1065.681885 1050.713135,1065.604248 
	C1050.463501,1066.445435 1050.459961,1067.525024 1049.918701,1068.083618 
	C1048.191162,1069.866333 1046.263794,1071.455688 1044.051514,1073.445312 
	C1045.842041,1075.491211 1047.535156,1077.425659 1049.569824,1079.750488 
	C1052.685791,1077.167847 1055.667725,1074.696289 1058.692017,1072.189697 
	C1060.280884,1075.294189 1059.212280,1076.618286 1049.046631,1084.375000 
	C1043.604858,1078.265991 1038.128784,1072.118286 1032.690308,1066.012939 
	C1038.627686,1058.689819 1042.531982,1055.996948 1045.947144,1057.370972 
	C1042.974976,1060.201294 1040.173462,1062.869019 1037.193848,1065.706421 
	C1038.534180,1067.249023 1039.724609,1068.619019 1041.212891,1070.256348 
z"/>
<path fill="#E2ECCA" opacity="1.000000" stroke="none" 
	d="
M1135.801880,947.021118 
	C1142.333374,951.645508 1138.574707,956.537659 1136.528931,961.737244 
	C1138.220825,962.697205 1139.991821,963.524353 1141.538696,964.657471 
	C1142.269165,965.192627 1142.570068,966.314209 1143.065674,967.170105 
	C1142.109253,967.379883 1140.917969,968.064758 1140.232788,967.725891 
	C1133.455444,964.374573 1126.761963,960.853760 1120.099243,957.409058 
	C1124.548584,945.300903 1127.755005,943.160645 1135.801880,947.021118 
M1124.864868,954.061768 
	C1127.511841,956.275818 1130.158936,958.489868 1132.805908,960.703979 
	C1133.472168,960.364807 1134.138428,960.025574 1134.804688,959.686401 
	C1134.907104,956.832825 1136.057129,953.413635 1134.887207,951.247131 
	C1132.665405,947.132690 1128.221191,948.315857 1124.864868,954.061768 
z"/>
<path fill="#E1EBC9" opacity="1.000000" stroke="none" 
	d="
M1160.046387,918.890259 
	C1153.457397,916.524292 1147.246094,914.269287 1141.111938,912.042236 
	C1142.541992,902.120544 1146.012451,897.633240 1151.403198,898.434387 
	C1158.733276,899.523804 1160.135498,902.740723 1158.106201,914.198547 
	C1159.216919,914.695435 1160.471802,915.093933 1161.543457,915.779175 
	C1162.779663,916.569580 1163.854126,917.613098 1164.998657,918.546814 
	C1163.473755,918.698303 1161.948975,918.849731 1160.046387,918.890259 
M1154.316528,903.272949 
	C1148.157959,900.918091 1146.240112,902.263428 1145.250122,909.893860 
	C1148.234497,910.953674 1151.269043,912.031311 1155.874146,913.666687 
	C1155.485596,909.533447 1155.214966,906.654114 1154.316528,903.272949 
z"/>
<path fill="#E0EBC9" opacity="1.000000" stroke="none" 
	d="
M427.074890,941.921143 
	C423.810944,942.267639 420.997650,942.794678 418.187317,942.779236 
	C417.034332,942.772949 415.326263,941.845093 414.898468,940.880615 
	C414.482513,939.942871 414.965363,937.967773 415.770172,937.229553 
	C421.518707,931.957397 427.450562,926.885132 433.324158,921.749329 
	C433.816528,922.022339 434.308899,922.295288 434.801270,922.568298 
	C434.176117,923.933289 433.882019,925.651489 432.868134,926.601746 
	C428.660858,930.544800 424.236206,934.256042 419.005402,938.826538 
	C427.279358,939.601929 434.602661,936.260681 441.676971,937.800049 
	C441.679321,938.572266 441.681702,939.344543 441.684052,940.116760 
	C436.964966,940.705627 432.245880,941.294434 427.074890,941.921143 
z"/>
<path fill="#DDE9C6" opacity="1.000000" stroke="none" 
	d="
M961.696045,1128.442993 
	C961.147339,1127.374268 960.880798,1126.545654 960.367188,1125.919922 
	C958.300232,1123.401978 956.156921,1120.946655 953.548096,1117.889648 
	C955.800720,1116.741577 958.855713,1115.184448 962.711243,1113.219360 
	C962.086548,1116.555176 960.947327,1118.713013 961.551331,1120.125610 
	C963.625183,1124.974976 966.161926,1129.651978 968.878113,1134.181152 
	C969.465271,1135.160156 971.535645,1135.249756 972.922852,1135.748901 
	C971.175537,1136.891357 969.510376,1138.200928 967.650635,1139.114502 
	C966.501221,1139.678955 965.055664,1139.640503 963.743042,1139.872559 
	C964.162231,1138.857788 965.133545,1137.687256 964.899414,1136.856689 
	C964.121338,1134.097412 962.909973,1131.460327 961.696045,1128.442993 
z"/>
<path fill="#E1EBC9" opacity="1.000000" stroke="none" 
	d="
M814.234863,1181.339600 
	C810.664001,1181.584106 807.525635,1181.805298 804.384583,1181.979248 
	C803.752502,1182.014282 803.110596,1181.871216 802.529358,1181.815552 
	C799.886047,1167.829712 800.317810,1157.671753 803.934204,1156.863770 
	C804.427551,1163.959961 804.917358,1171.004639 805.443909,1178.577759 
	C808.604248,1178.424316 811.514221,1178.192871 814.423584,1178.201050 
	C815.214905,1178.203247 816.004272,1178.927246 816.794556,1179.320068 
	C816.085205,1179.979858 815.375793,1180.639893 814.234863,1181.339600 
z"/>
<path fill="#EDF2D3" opacity="1.000000" stroke="none" 
	d="
M755.817871,909.361023 
	C756.062439,909.628662 756.326111,909.864624 756.589844,910.100586 
	C756.343140,910.066589 756.096436,910.032593 755.833130,909.628418 
	C755.816589,909.258240 755.836914,909.329346 755.817871,909.361023 
z"/>
<path fill="#3D8A3F" opacity="1.000000" stroke="none" 
	d="
M793.561462,607.518188 
	C774.533203,613.740051 757.703003,623.914551 742.310730,636.541016 
	C734.057861,625.662415 735.140320,609.640503 745.743469,599.983582 
	C751.908569,594.368652 759.418762,589.978699 766.868774,586.078613 
	C782.615601,577.835327 799.446167,571.584351 813.485474,560.274536 
	C816.592224,557.771851 819.285950,554.707458 822.567627,552.490540 
	C824.380188,551.266174 827.471313,550.233948 829.166260,550.979370 
	C831.153442,551.853333 833.482422,554.714844 833.546021,556.779480 
	C834.381775,583.885010 833.119080,610.864258 822.664307,636.333252 
	C813.486572,658.691467 797.532776,665.992310 773.909424,659.520508 
	C770.547791,658.599548 768.682739,658.976929 767.064148,662.017944 
	C763.241394,669.200439 759.080688,676.207153 755.390564,683.454895 
	C752.315491,689.494629 748.252441,691.692810 743.161621,689.384521 
	C738.297668,687.179199 736.943298,682.242981 739.635559,676.195435 
	C751.764465,648.950256 770.341003,626.890991 794.323242,608.488403 
	C794.933655,607.835571 795.109131,607.533264 795.284546,607.230957 
	C794.710205,607.326721 794.135803,607.422424 793.561462,607.518188 
z"/>
<path fill="#3F8B41" opacity="1.000000" stroke="none" 
	d="
M608.987549,884.758911 
	C606.017151,886.638550 603.242554,888.192017 600.467957,889.745483 
	C599.057251,887.035156 596.736877,884.433777 596.396606,881.595154 
	C595.073792,870.559631 596.483215,859.653381 600.285950,849.222717 
	C601.926697,844.722107 606.409973,843.312012 610.801453,842.732117 
	C611.704041,842.612915 613.790222,844.316772 613.717896,845.012756 
	C612.351379,858.167786 610.742004,871.297668 608.987549,884.758911 
z"/>
<path fill="#3F8B41" opacity="1.000000" stroke="none" 
	d="
M865.842773,887.923706 
	C860.317505,890.769836 857.954651,890.380798 857.418213,884.957825 
	C856.579224,876.476746 857.161987,867.832458 857.495605,859.271057 
	C857.603027,856.515381 858.732910,853.775208 859.555908,851.077026 
	C860.961365,846.468750 866.078735,842.465149 870.778442,842.756042 
	C871.889038,842.824829 873.848938,844.955994 873.771362,846.018005 
	C872.911194,857.787231 871.928467,869.558167 870.456360,881.262939 
	C870.167175,883.561768 867.647827,885.580139 865.842773,887.923706 
z"/>
<path fill="#3F8B41" opacity="1.000000" stroke="none" 
	d="
M802.157471,869.106445 
	C806.483826,883.575134 796.388672,901.493530 784.650452,902.595825 
	C785.318176,889.590393 786.016541,876.442139 786.655273,863.290894 
	C786.870422,858.860046 791.650208,856.227112 795.174927,859.259216 
	C798.045776,861.728821 799.769592,865.531860 802.157471,869.106445 
z"/>
<path fill="#438E44" opacity="1.000000" stroke="none" 
	d="
M793.509216,825.392334 
	C800.927979,832.896118 796.867004,842.371765 790.870422,850.822632 
	C789.867859,852.235474 788.198059,853.174805 786.268494,854.816223 
	C786.268494,848.262573 786.277405,842.380920 786.263855,836.499329 
	C786.258911,834.334534 786.241699,832.168396 786.159058,830.005493 
	C785.965820,824.946594 788.240967,823.369873 793.509216,825.392334 
z"/>
<path fill="#3E8B41" opacity="1.000000" stroke="none" 
	d="
M856.896851,1020.736938 
	C854.739441,1025.246826 852.978882,1029.575684 850.470093,1033.415649 
	C847.981812,1037.224121 844.011719,1038.961060 838.817749,1038.696777 
	C838.817749,1035.519165 838.934448,1032.374146 838.795715,1029.240234 
	C838.391663,1020.111267 838.085388,1010.969849 837.309753,1001.869995 
	C837.042419,998.733093 837.968994,997.746582 840.812195,997.311218 
	C849.288635,996.013245 854.048462,998.774719 855.889587,1007.110718 
	C856.835022,1011.391479 856.643494,1015.923340 856.896851,1020.736938 
z"/>
<path fill="#3F8B41" opacity="1.000000" stroke="none" 
	d="
M529.353638,831.434814 
	C530.104126,844.833984 522.148132,851.968567 511.773712,858.169006 
	C510.896332,851.971985 510.375122,846.266418 509.214417,840.693970 
	C508.171967,835.689453 506.755402,830.702026 504.886505,825.949890 
	C503.418457,822.216980 501.682739,819.058044 505.779755,815.840698 
	C509.656342,812.796387 514.651184,811.880432 518.757874,814.386658 
	C524.955200,818.168701 528.324036,823.879761 529.353638,831.434814 
z"/>
<path fill="#3F8B41" opacity="1.000000" stroke="none" 
	d="
M1045.250000,887.873047 
	C1041.998657,888.852173 1038.528442,890.583435 1036.006958,889.676453 
	C1034.250610,889.044739 1033.031006,884.831177 1032.899292,882.152344 
	C1032.446289,872.945740 1035.640137,869.432190 1045.436157,867.403076 
	C1045.436157,874.123169 1045.436157,880.810974 1045.250000,887.873047 
z"/>
<path fill="#408C42" opacity="1.000000" stroke="none" 
	d="
M993.554260,854.016174 
	C989.873047,860.506042 984.206848,862.383484 976.468628,862.815247 
	C978.959534,855.842285 980.995056,849.474854 983.639648,843.371338 
	C984.104248,842.299072 987.412537,841.495728 988.905029,842.014404 
	C993.231995,843.518127 994.659973,847.572266 993.554260,854.016174 
z"/>
<path fill="#3B893E" opacity="1.000000" stroke="none" 
	d="
M922.447144,1149.702759 
	C922.706299,1150.111206 922.715637,1150.703979 922.724915,1151.296631 
	C922.433289,1151.123169 922.141602,1150.949829 921.775208,1150.517822 
	C921.866028,1150.135132 922.031677,1150.011108 922.447144,1149.702759 
z"/>
<path fill="#438E44" opacity="1.000000" stroke="none" 
	d="
M756.840942,1167.964355 
	C749.057739,1167.367065 754.484619,1162.266479 752.623108,1159.034668 
	C756.800110,1159.265503 761.017334,1157.628906 762.263733,1162.518188 
	C763.152283,1166.003784 761.176025,1168.181641 756.840942,1167.964355 
z"/>
<path fill="#408C42" opacity="1.000000" stroke="none" 
	d="
M854.512878,1170.284180 
	C853.498779,1164.850464 852.599548,1159.815186 851.415283,1153.183594 
	C855.638489,1154.122803 860.489685,1153.836670 861.619629,1155.749146 
	C863.698364,1159.267578 864.275696,1164.118286 864.038391,1168.332642 
	C863.948364,1169.930786 859.968018,1171.488647 857.558044,1172.640503 
	C857.016846,1172.899170 855.626953,1171.382202 854.512878,1170.284180 
z"/>
<path fill="#408C42" opacity="1.000000" stroke="none" 
	d="
M1011.657959,1101.924438 
	C1014.094177,1107.934570 1010.389709,1110.436279 1005.832458,1113.143311 
	C1002.331726,1107.974487 998.858704,1102.846558 995.409302,1097.753540 
	C1002.823486,1091.575928 1006.003723,1092.405640 1011.657959,1101.924438 
z"/>
<path fill="#408C42" opacity="1.000000" stroke="none" 
	d="
M704.050903,1151.081787 
	C708.283508,1151.467041 710.783997,1153.536987 710.666504,1157.424316 
	C710.517761,1162.348633 710.457703,1167.939453 705.448792,1170.482178 
	C703.602783,1171.419067 699.242676,1170.177979 697.727478,1168.445312 
	C693.949768,1164.125244 698.022034,1153.247925 704.050903,1151.081787 
z"/>
<path fill="#4A924A" opacity="1.000000" stroke="none" 
	d="
M395.879822,845.940308 
	C399.327332,845.227478 402.809753,844.942322 406.292175,844.657227 
	C406.406433,845.247803 406.520691,845.838379 406.634949,846.428894 
	C403.611786,848.100342 400.588623,849.771851 396.991699,851.760559 
	C396.540619,849.501892 396.227661,847.934998 395.879822,845.940308 
z"/>
<path fill="#4A924A" opacity="1.000000" stroke="none" 
	d="
M522.921936,1058.890137 
	C521.808655,1062.244507 520.695435,1065.598999 519.303650,1069.792480 
	C516.919617,1067.673218 515.269409,1066.206421 512.961304,1064.154663 
	C516.364136,1062.287964 519.319763,1060.666382 522.615784,1058.997314 
	C522.956116,1058.949585 522.921936,1058.890137 522.921936,1058.890137 
z"/>
<path fill="#4A924A" opacity="1.000000" stroke="none" 
	d="
M522.973877,1058.979004 
	C523.082275,1058.910278 523.164795,1058.801147 523.270935,1058.724609 
	C523.290344,1058.710449 523.405457,1058.828735 523.476440,1058.885986 
	C523.378906,1058.961426 523.281433,1059.036743 523.052917,1059.001221 
	C522.921936,1058.890137 522.956116,1058.949585 522.973877,1058.979004 
z"/>
<path fill="#4A924A" opacity="1.000000" stroke="none" 
	d="
M1102.317993,996.982239 
	C1105.525513,997.832642 1108.347412,998.659058 1111.864014,999.688904 
	C1110.356201,1002.044434 1109.162231,1003.909485 1107.116089,1007.106018 
	C1105.100220,1003.159546 1103.516235,1000.058899 1102.317993,996.982239 
z"/>
<path fill="#408C42" opacity="1.000000" stroke="none" 
	d="
M1124.998047,953.728760 
	C1128.221191,948.315857 1132.665405,947.132690 1134.887207,951.247131 
	C1136.057129,953.413635 1134.907104,956.832825 1134.804688,959.686401 
	C1134.138428,960.025574 1133.472168,960.364807 1132.805908,960.703979 
	C1130.158936,958.489868 1127.511841,956.275818 1124.998047,953.728760 
z"/>
<path fill="#438E44" opacity="1.000000" stroke="none" 
	d="
M1154.630371,903.523804 
	C1155.214966,906.654114 1155.485596,909.533447 1155.874146,913.666687 
	C1151.269043,912.031311 1148.234497,910.953674 1145.250122,909.893860 
	C1146.240112,902.263428 1148.157959,900.918091 1154.630371,903.523804 
z"/>
<path fill="#EFF4D5" opacity="1.000000" stroke="none" 
	d="
M793.727173,607.704468 
	C794.135803,607.422424 794.710205,607.326721 795.284546,607.230957 
	C795.109131,607.533264 794.933655,607.835571 794.492310,608.199646 
	C794.226379,608.261414 793.892883,607.890686 793.727173,607.704468 
z"/>
</svg>